<svg width="135" height="161" viewBox="0 0 135 161" fill="none" xmlns="http://www.w3.org/2000/svg">
<path d="M80.1502 124.497V140.513C80.1502 140.869 82.7726 141.581 93.2621 141.581C103.752 141.581 110.656 149.856 123.5 160H1C6.21804 133.439 33.054 131.838 38.6734 114.486C44.2929 97.135 32.7865 82.7201 30.2443 75.6461C27.7022 68.5721 27.8546 32.4555 60.2146 29.5985C88.8468 27.0706 98.614 32.5349 104.233 46.2824C106.922 52.8591 108.515 68.1717 107.712 69.373C106.909 70.5742 106.909 70.9746 107.712 72.0424C108.515 73.1102 115.874 83.5209 116.81 84.9891C117.747 86.4573 115.338 88.5928 113.867 89.1267C112.395 89.6606 109.719 88.7263 110.656 94.4656C111.592 100.205 106.642 98.2028 107.712 99.9379C108.782 101.673 109.585 102.474 107.712 104.342C105.839 106.211 107.712 107.412 107.712 112.084C107.712 116.755 103.832 117.823 99.6844 117.823H86.0372C84.0749 117.868 80.1502 119.265 80.1502 124.497Z" stroke="#FDB913"/>
<circle cx="86" cy="49" r="49" fill="url(#paint0_radial_1150_8)"/>
<defs>
<radialGradient id="paint0_radial_1150_8" cx="0" cy="0" r="1" gradientUnits="userSpaceOnUse" gradientTransform="translate(86 49) rotate(90) scale(49)">
<stop stop-color="#E90000"/>
<stop offset="1" stop-color="#FF5A5A" stop-opacity="0"/>
</radialGradient>
</defs>
</svg>
