<svg width="125" height="133" viewBox="0 0 125 133" fill="none" xmlns="http://www.w3.org/2000/svg">
<path d="M80.1502 96.4967V112.513C80.1502 112.869 82.7726 113.581 93.2621 113.581C103.752 113.581 110.656 121.856 123.5 132H1C6.21804 105.439 33.054 103.838 38.6734 86.4863C44.2929 69.135 32.7865 54.7201 30.2443 47.6461C27.7022 40.5721 27.8546 4.4555 60.2146 1.59852C88.8468 -0.929355 98.614 4.5349 104.233 18.2824C106.922 24.8591 108.515 40.1717 107.712 41.373C106.909 42.5742 106.909 42.9746 107.712 44.0424C108.515 45.1102 115.874 55.5209 116.81 56.9891C117.747 58.4573 115.338 60.5928 113.867 61.1267C112.395 61.6606 109.719 60.7263 110.656 66.4656C111.592 72.2049 106.642 70.2028 107.712 71.9379C108.782 73.6731 109.585 74.4739 107.712 76.3425C105.839 78.2111 107.712 79.4123 107.712 84.0838C107.712 88.7553 103.832 89.8231 99.6844 89.8231H86.0372C84.0749 89.8676 80.1502 91.2646 80.1502 96.4967Z" stroke="#FDB913"/>
<circle cx="71" cy="44" r="38" fill="url(#paint0_radial_1150_14)"/>
<defs>
<radialGradient id="paint0_radial_1150_14" cx="0" cy="0" r="1" gradientUnits="userSpaceOnUse" gradientTransform="translate(71 44) rotate(90) scale(38)">
<stop stop-color="#E90000"/>
<stop offset="1" stop-color="#FF5A5A" stop-opacity="0"/>
</radialGradient>
</defs>
</svg>
