<svg width="134" height="144" viewBox="0 0 134 144" fill="none" xmlns="http://www.w3.org/2000/svg">
<path d="M80.1502 107.497V123.513C80.1502 123.869 82.7726 124.581 93.2621 124.581C103.752 124.581 110.656 132.856 123.5 143H1C6.21804 116.439 33.054 114.838 38.6734 97.4863C44.2929 80.135 32.7865 65.7201 30.2443 58.6461C27.7022 51.5721 27.8546 15.4555 60.2146 12.5985C88.8468 10.0706 98.614 15.5349 104.233 29.2824C106.922 35.8591 108.515 51.1717 107.712 52.373C106.909 53.5742 106.909 53.9746 107.712 55.0424C108.515 56.1102 115.874 66.5209 116.81 67.9891C117.747 69.4573 115.338 71.5928 113.867 72.1267C112.395 72.6606 109.719 71.7263 110.656 77.4656C111.592 83.2049 106.642 81.2028 107.712 82.9379C108.782 84.6731 109.585 85.4739 107.712 87.3425C105.839 89.2111 107.712 90.4123 107.712 95.0838C107.712 99.7553 103.832 100.823 99.6844 100.823H86.0372C84.0749 100.868 80.1502 102.265 80.1502 107.497Z" stroke="#FDB913"/>
<circle cx="39" cy="29" r="29" fill="url(#paint0_radial_1150_15)"/>
<circle cx="70" cy="45" r="29" fill="url(#paint1_radial_1150_15)"/>
<circle cx="105" cy="29" r="29" fill="url(#paint2_radial_1150_15)"/>
<defs>
<radialGradient id="paint0_radial_1150_15" cx="0" cy="0" r="1" gradientUnits="userSpaceOnUse" gradientTransform="translate(39 29) rotate(90) scale(29)">
<stop stop-color="#E90000"/>
<stop offset="1" stop-color="#FF5A5A" stop-opacity="0"/>
</radialGradient>
<radialGradient id="paint1_radial_1150_15" cx="0" cy="0" r="1" gradientUnits="userSpaceOnUse" gradientTransform="translate(70 45) rotate(90) scale(29)">
<stop stop-color="#E90000"/>
<stop offset="1" stop-color="#FF5A5A" stop-opacity="0"/>
</radialGradient>
<radialGradient id="paint2_radial_1150_15" cx="0" cy="0" r="1" gradientUnits="userSpaceOnUse" gradientTransform="translate(105 29) rotate(90) scale(29)">
<stop stop-color="#E90000"/>
<stop offset="1" stop-color="#FF5A5A" stop-opacity="0"/>
</radialGradient>
</defs>
</svg>
