<svg width="608" height="226" viewBox="0 0 608 226" fill="none" xmlns="http://www.w3.org/2000/svg">
<rect x="564.866" y="0.486572" width="43.1196" height="209.288" rx="21.5598" fill="url(#paint0_linear_1149_6)"/>
<path d="M578.808 194.327H581.544V181.637H579.654L576.036 182.717L576.612 184.985L578.808 184.445V194.327ZM590.65 194.543C594.016 194.543 596.266 191.681 596.266 188.027C596.266 184.337 594.016 181.511 590.686 181.511C587.338 181.511 585.07 184.373 585.07 188.027C585.07 191.717 587.284 194.543 590.65 194.543ZM590.686 192.041C589.012 192.041 587.914 190.331 587.914 188.027C587.914 185.687 588.994 184.013 590.65 184.013C592.306 184.013 593.422 185.741 593.422 188.027C593.422 190.349 592.36 192.041 590.686 192.041Z" fill="#1B4793"/>
<rect x="439.713" y="43.6062" width="42.0679" height="166.168" rx="21.034" fill="#D9D9D9"/>
<rect x="439.713" y="43.6062" width="42.0679" height="166.168" rx="21.034" fill="url(#paint1_linear_1149_6)"/>
<path d="M461.274 194.507C464.064 194.507 466.134 193.139 466.134 190.799C466.134 189.269 465.378 188.459 464.1 187.793C465.072 187.199 465.702 186.389 465.702 185.039C465.702 183.059 463.938 181.547 461.274 181.547C458.61 181.547 456.846 183.077 456.846 185.003C456.846 186.389 457.476 187.199 458.448 187.793C457.116 188.405 456.414 189.305 456.414 190.835C456.414 193.067 458.484 194.507 461.274 194.507ZM461.274 186.875C460.176 186.875 459.474 186.209 459.474 185.327C459.474 184.517 460.14 183.833 461.274 183.833C462.408 183.833 463.074 184.535 463.074 185.309C463.074 186.227 462.372 186.875 461.274 186.875ZM461.274 192.221C459.906 192.221 459.096 191.519 459.096 190.655C459.096 189.647 460.014 189.071 461.274 189.071C462.534 189.071 463.452 189.647 463.452 190.619C463.452 191.537 462.642 192.221 461.274 192.221Z" fill="#1B4793"/>
<rect x="376.612" y="60.4333" width="43.1196" height="149.341" rx="21.5598" fill="#D9D9D9"/>
<rect x="376.612" y="60.4333" width="43.1196" height="149.341" rx="21.5598" fill="url(#paint2_linear_1149_6)"/>
<path d="M394.111 194.327H397.243L402.895 183.815V181.727H393.823V184.121H399.745L394.111 194.327Z" fill="#1B4793"/>
<rect x="313.51" y="83.5708" width="43.1196" height="126.204" rx="21.5598" fill="#D9D9D9"/>
<rect x="313.51" y="83.5708" width="43.1196" height="126.204" rx="21.5598" fill="url(#paint3_linear_1149_6)"/>
<path d="M335.212 194.543C337.948 194.543 340.018 192.761 340.018 190.187C340.018 187.523 338.092 186.137 335.59 186.137C334.348 186.137 333.61 186.533 332.98 186.947C333.16 185.291 333.952 184.031 335.518 184.031C336.598 184.031 337.264 184.409 338.092 185.039L339.55 182.897C338.434 182.015 337.318 181.511 335.608 181.511C331.846 181.511 330.082 184.499 330.082 188.387C330.082 190.925 330.658 192.275 331.576 193.193C332.458 194.075 333.574 194.543 335.212 194.543ZM335.104 192.167C333.736 192.167 332.908 191.357 332.908 190.295C332.908 189.197 333.7 188.441 335.068 188.441C336.436 188.441 337.264 189.215 337.264 190.277C337.264 191.393 336.472 192.167 335.104 192.167Z" fill="#1B4793"/>
<rect x="251.459" y="103.553" width="42.0679" height="106.222" rx="21.034" fill="#D9D9D9"/>
<rect x="251.459" y="103.553" width="42.0679" height="106.222" rx="21.034" fill="url(#paint4_linear_1149_6)"/>
<path d="M272.84 194.543C275.738 194.543 277.628 192.851 277.628 190.187C277.628 187.307 275.666 186.119 273.218 186.119C272.516 186.119 272.066 186.209 271.562 186.335L271.706 184.157H277.07V181.727H269.33L268.97 187.937L270.572 188.999C271.166 188.747 271.886 188.531 272.678 188.531C273.992 188.531 274.91 189.161 274.91 190.241C274.91 191.393 274.1 192.023 272.804 192.023C271.688 192.023 270.752 191.519 269.798 190.655L268.124 192.653C269.348 193.823 270.824 194.543 272.84 194.543Z" fill="#1B4793"/>
<rect x="188.357" y="118.277" width="43.1196" height="91.4978" rx="21.5598" fill="#D9D9D9"/>
<rect x="188.357" y="118.277" width="43.1196" height="91.4978" rx="21.5598" fill="url(#paint5_linear_1149_6)"/>
<path d="M211.402 194.327H214.048V191.609H215.74V189.359H214.048V181.637H211.708L204.796 189.647L205.246 191.609H211.402V194.327ZM208.054 189.359L211.402 185.435V189.359H208.054Z" fill="#1B4793"/>
<rect x="125.256" y="133" width="43.1196" height="76.774" rx="21.5598" fill="#D9D9D9"/>
<rect x="125.256" y="133" width="43.1196" height="76.774" rx="21.5598" fill="url(#paint6_linear_1149_6)"/>
<path d="M146.824 194.543C149.632 194.543 151.36 192.797 151.36 190.421C151.36 188.045 149.686 187.145 147.976 186.857L151.162 183.815V181.727H142.648V184.103H147.598L144.592 187.127L145.024 188.891H146.176C147.724 188.891 148.642 189.467 148.642 190.493C148.642 191.465 147.904 192.059 146.86 192.059C145.582 192.059 144.682 191.519 143.818 190.547L141.91 192.365C142.99 193.643 144.556 194.543 146.824 194.543Z" fill="#1B4793"/>
<rect x="63.2053" y="145.621" width="42.0679" height="64.1536" rx="21.034" fill="#D9D9D9"/>
<rect x="63.2053" y="145.621" width="42.0679" height="64.1536" rx="21.034" fill="url(#paint7_linear_1149_6)"/>
<path d="M80.5655 194.327H89.8895V191.933H84.3995L86.4515 190.349C88.6835 188.621 89.7635 187.577 89.7635 185.471C89.7635 183.077 88.0355 181.547 85.4255 181.547C83.1755 181.547 81.9695 182.465 80.7275 184.157L82.6715 185.723C83.6075 184.571 84.2735 184.031 85.2455 184.031C86.2355 184.031 86.9375 184.607 86.9375 185.669C86.9375 186.713 86.3255 187.397 84.7595 188.693L80.5655 192.131V194.327Z" fill="#1B4793"/>
<rect x="0.103394" y="158.241" width="43.1196" height="51.5332" rx="21.5598" fill="#D9D9D9"/>
<rect x="0.103394" y="158.241" width="43.1196" height="51.5332" rx="21.5598" fill="url(#paint8_linear_1149_6)"/>
<path d="M21.5962 194.327H24.3322V181.637H22.4422L18.8242 182.717L19.4002 184.985L21.5962 184.445V194.327Z" fill="#1B4793"/>
<g filter="url(#filter0_d_1149_6)">
<rect x="501.764" y="18.3655" width="43.1196" height="191.409" rx="21.5598" fill="#D9D9D9"/>
<rect x="501.764" y="18.3655" width="43.1196" height="191.409" rx="21.5598" fill="url(#paint9_linear_1149_6)"/>
</g>
<path d="M522.8 194.543C526.382 194.543 528.308 191.753 528.308 187.667C528.308 185.147 527.714 183.779 526.814 182.879C525.86 181.925 524.87 181.511 523.178 181.511C520.334 181.511 518.372 183.383 518.372 185.921C518.372 188.513 520.136 190.025 522.872 190.025C523.97 190.025 524.816 189.683 525.428 189.161C525.248 190.853 524.42 192.023 522.872 192.023C521.81 192.023 521.036 191.681 520.118 190.943L518.66 193.049C519.722 193.931 520.964 194.543 522.8 194.543ZM523.322 187.721C521.954 187.721 521.126 186.947 521.126 185.831C521.126 184.679 521.9 183.887 523.268 183.887C524.654 183.887 525.482 184.697 525.482 185.813C525.482 186.929 524.69 187.721 523.322 187.721Z" fill="white"/>
<defs>
<filter id="filter0_d_1149_6" x="485.764" y="2.36548" width="75.1196" height="223.409" filterUnits="userSpaceOnUse" color-interpolation-filters="sRGB">
<feFlood flood-opacity="0" result="BackgroundImageFix"/>
<feColorMatrix in="SourceAlpha" type="matrix" values="0 0 0 0 0 0 0 0 0 0 0 0 0 0 0 0 0 0 127 0" result="hardAlpha"/>
<feOffset/>
<feGaussianBlur stdDeviation="8"/>
<feComposite in2="hardAlpha" operator="out"/>
<feColorMatrix type="matrix" values="0 0 0 0 0 0 0 0 0 0.576471 0 0 0 0 0.756863 0 0 0 1 0"/>
<feBlend mode="normal" in2="BackgroundImageFix" result="effect1_dropShadow_1149_6"/>
<feBlend mode="normal" in="SourceGraphic" in2="effect1_dropShadow_1149_6" result="shape"/>
</filter>
<linearGradient id="paint0_linear_1149_6" x1="586.425" y1="0.486572" x2="586.425" y2="209.775" gradientUnits="userSpaceOnUse">
<stop stop-color="#E90000"/>
<stop offset="1" stop-color="#7CD5FF"/>
</linearGradient>
<linearGradient id="paint1_linear_1149_6" x1="460.747" y1="0.48656" x2="460.747" y2="209.775" gradientUnits="userSpaceOnUse">
<stop stop-color="#E90000"/>
<stop offset="1" stop-color="#7CD5FF"/>
</linearGradient>
<linearGradient id="paint2_linear_1149_6" x1="398.171" y1="4.69332" x2="398.171" y2="209.775" gradientUnits="userSpaceOnUse">
<stop stop-color="#E90000"/>
<stop offset="1" stop-color="#7CD5FF"/>
</linearGradient>
<linearGradient id="paint3_linear_1149_6" x1="335.069" y1="3.64171" x2="335.069" y2="209.775" gradientUnits="userSpaceOnUse">
<stop stop-color="#E90000"/>
<stop offset="1" stop-color="#7CD5FF"/>
</linearGradient>
<linearGradient id="paint4_linear_1149_6" x1="272.493" y1="8.9001" x2="272.493" y2="209.775" gradientUnits="userSpaceOnUse">
<stop stop-color="#E90000"/>
<stop offset="1" stop-color="#7CD5FF"/>
</linearGradient>
<linearGradient id="paint5_linear_1149_6" x1="209.917" y1="1.5383" x2="209.917" y2="209.775" gradientUnits="userSpaceOnUse">
<stop stop-color="#E90000"/>
<stop offset="1" stop-color="#7CD5FF"/>
</linearGradient>
<linearGradient id="paint6_linear_1149_6" x1="146.815" y1="6.79665" x2="146.815" y2="209.774" gradientUnits="userSpaceOnUse">
<stop stop-color="#E90000"/>
<stop offset="1" stop-color="#7CD5FF"/>
</linearGradient>
<linearGradient id="paint7_linear_1149_6" x1="84.2393" y1="2.58984" x2="84.2393" y2="209.774" gradientUnits="userSpaceOnUse">
<stop stop-color="#E90000"/>
<stop offset="1" stop-color="#7CD5FF"/>
</linearGradient>
<linearGradient id="paint8_linear_1149_6" x1="21.6632" y1="-5.82378" x2="21.6632" y2="209.774" gradientUnits="userSpaceOnUse">
<stop stop-color="#E90000"/>
<stop offset="1" stop-color="#7CD5FF"/>
</linearGradient>
<linearGradient id="paint9_linear_1149_6" x1="523.323" y1="0.486601" x2="523.323" y2="209.775" gradientUnits="userSpaceOnUse">
<stop stop-color="#E90000"/>
<stop offset="1" stop-color="#FF7C7C"/>
</linearGradient>
</defs>
</svg>
