<svg width="143" height="137" viewBox="0 0 143 137" fill="none" xmlns="http://www.w3.org/2000/svg">
<path d="M80.1502 100.497V116.513C80.1502 116.869 82.7726 117.581 93.2621 117.581C103.752 117.581 110.656 125.856 123.5 136H1C6.21804 109.439 33.054 107.838 38.6734 90.4863C44.2929 73.135 32.7865 58.7201 30.2443 51.6461C27.7022 44.5721 27.8546 8.4555 60.2146 5.59852C88.8468 3.07065 98.614 8.5349 104.233 22.2824C106.922 28.8591 108.515 44.1717 107.712 45.373C106.909 46.5742 106.909 46.9746 107.712 48.0424C108.515 49.1102 115.874 59.5209 116.81 60.9891C117.747 62.4573 115.338 64.5928 113.867 65.1267C112.395 65.6606 109.719 64.7263 110.656 70.4656C111.592 76.2049 106.642 74.2028 107.712 75.9379C108.782 77.6731 109.585 78.4739 107.712 80.3425C105.839 82.2111 107.712 83.4123 107.712 88.0838C107.712 92.7553 103.832 93.8231 99.6844 93.8231H86.0372C84.0749 93.8676 80.1502 95.2646 80.1502 100.497Z" stroke="#FDB913"/>
<circle cx="102" cy="41" r="41" fill="url(#paint0_radial_1150_13)"/>
<defs>
<radialGradient id="paint0_radial_1150_13" cx="0" cy="0" r="1" gradientUnits="userSpaceOnUse" gradientTransform="translate(102 41) rotate(90) scale(41)">
<stop stop-color="#E90000"/>
<stop offset="1" stop-color="#FF5A5A" stop-opacity="0"/>
</radialGradient>
</defs>
</svg>
