<svg width="140" height="176" viewBox="0 0 140 176" fill="none" xmlns="http://www.w3.org/2000/svg">
<path d="M80.6502 139.497V155.513C80.6502 155.869 83.2726 156.581 93.7621 156.581C104.252 156.581 111.156 164.856 124 175H1.5C6.71804 148.439 33.554 146.838 39.1734 129.486C44.7929 112.135 33.2865 97.7201 30.7443 90.6461C28.2022 83.5721 28.3546 47.4555 60.7146 44.5985C89.3468 42.0706 99.114 47.5349 104.733 61.2824C107.422 67.8591 109.015 83.1717 108.212 84.373C107.409 85.5742 107.409 85.9746 108.212 87.0424C109.015 88.1102 116.374 98.5209 117.31 99.9891C118.247 101.457 115.838 103.593 114.367 104.127C112.895 104.661 110.219 103.726 111.156 109.466C112.092 115.205 107.142 113.203 108.212 114.938C109.282 116.673 110.085 117.474 108.212 119.342C106.339 121.211 108.212 122.412 108.212 127.084C108.212 131.755 104.332 132.823 100.184 132.823H86.5372C84.5749 132.868 80.6502 134.265 80.6502 139.497Z" stroke="#FDB913"/>
<circle cx="71" cy="69" r="69" fill="url(#paint0_radial_1150_7)"/>
<defs>
<radialGradient id="paint0_radial_1150_7" cx="0" cy="0" r="1" gradientUnits="userSpaceOnUse" gradientTransform="translate(71 69) rotate(90) scale(69)">
<stop stop-color="#E90000"/>
<stop offset="1" stop-color="#FF5A5A" stop-opacity="0"/>
</radialGradient>
</defs>
</svg>
