<svg width="42" height="47" viewBox="0 0 42 47" fill="none" xmlns="http://www.w3.org/2000/svg">
<path d="M15.043 35.3784H16.369V23.3934H15.383L12.476 24.3964L12.799 25.4844L15.043 24.7874V35.3784ZM25.0118 35.5824C28.0718 35.5824 30.0438 32.7604 30.0438 29.4284C30.0438 26.0624 28.1058 23.2744 25.0458 23.2744C21.9858 23.2744 19.9968 26.0964 19.9968 29.4284C19.9968 32.7944 21.9348 35.5824 25.0118 35.5824ZM25.0458 34.3584C22.8188 34.3584 21.3908 32.0294 21.3908 29.4284C21.3908 26.7764 22.7848 24.4984 25.0118 24.4984C27.2218 24.4984 28.6498 26.8274 28.6498 29.4284C28.6498 32.0634 27.2728 34.3584 25.0458 34.3584Z" fill="#636363"/>
<path d="M0.5 13.3784H41.5" stroke="#636363" stroke-width="1.5" stroke-dasharray="2 2"/>
<rect x="0.75" y="5.12842" width="40.5" height="40.5" rx="4.25" stroke="#636363" stroke-width="1.5"/>
<path d="M6 1.37842V7.37842" stroke="#636363" stroke-width="1.5" stroke-linecap="round"/>
<path d="M12 1.37842V7.37842" stroke="#636363" stroke-width="1.5" stroke-linecap="round"/>
<path d="M18 1.37842V7.37842" stroke="#636363" stroke-width="1.5" stroke-linecap="round"/>
<path d="M24 1.37842V7.37842" stroke="#636363" stroke-width="1.5" stroke-linecap="round"/>
<path d="M30 1.37842V7.37842" stroke="#636363" stroke-width="1.5" stroke-linecap="round"/>
<path d="M37 1.37842V7.37842" stroke="#636363" stroke-width="1.5" stroke-linecap="round"/>
</svg>
