<svg width="42" height="47" viewBox="0 0 42 47" fill="none" xmlns="http://www.w3.org/2000/svg">
<path d="M15.287 35.5824C17.497 35.5824 19.265 34.1204 19.265 31.9954C19.265 29.7854 17.412 28.7824 15.338 28.6124L19.078 24.4644V23.4784H11.479V24.6854H17.293L13.536 28.9184L13.808 29.7174H14.573C16.528 29.7174 17.905 30.5334 17.905 32.0124C17.905 33.4404 16.749 34.3584 15.304 34.3584C13.842 34.3584 12.737 33.7124 11.819 32.5904L10.85 33.4574C11.819 34.7154 13.298 35.5824 15.287 35.5824ZM27.3448 35.5824C30.4048 35.5824 32.3768 32.7604 32.3768 29.4284C32.3768 26.0624 30.4388 23.2744 27.3788 23.2744C24.3188 23.2744 22.3298 26.0964 22.3298 29.4284C22.3298 32.7944 24.2678 35.5824 27.3448 35.5824ZM27.3788 34.3584C25.1518 34.3584 23.7238 32.0294 23.7238 29.4284C23.7238 26.7764 25.1178 24.4984 27.3448 24.4984C29.5548 24.4984 30.9828 26.8274 30.9828 29.4284C30.9828 32.0634 29.6058 34.3584 27.3788 34.3584Z" fill="#636363"/>
<path d="M0.5 13.3784H41.5" stroke="#636363" stroke-width="1.5" stroke-dasharray="2 2"/>
<rect x="0.75" y="5.12842" width="40.5" height="40.5" rx="4.25" stroke="#636363" stroke-width="1.5"/>
<path d="M6 1.37842V7.37842" stroke="#636363" stroke-width="1.5" stroke-linecap="round"/>
<path d="M12 1.37842V7.37842" stroke="#636363" stroke-width="1.5" stroke-linecap="round"/>
<path d="M18 1.37842V7.37842" stroke="#636363" stroke-width="1.5" stroke-linecap="round"/>
<path d="M24 1.37842V7.37842" stroke="#636363" stroke-width="1.5" stroke-linecap="round"/>
<path d="M30 1.37842V7.37842" stroke="#636363" stroke-width="1.5" stroke-linecap="round"/>
<path d="M37 1.37842V7.37842" stroke="#636363" stroke-width="1.5" stroke-linecap="round"/>
</svg>
