<svg width="74" height="41" viewBox="0 0 74 41" fill="none" xmlns="http://www.w3.org/2000/svg">
<path d="M12.1846 30.0522C12.1846 30.0522 15.8571 33.8917 19.3627 30.0522" stroke="#636363" stroke-width="1.5" stroke-miterlimit="10" stroke-linecap="round"/>
<path d="M11.8502 23.0413C12.4034 23.0413 12.8518 22.5929 12.8518 22.0397C12.8518 21.4865 12.4034 21.0381 11.8502 21.0381C11.2971 21.0381 10.8486 21.4865 10.8486 22.0397C10.8486 22.5929 11.2971 23.0413 11.8502 23.0413Z" fill="#636363"/>
<path d="M20.1969 23.0413C20.7501 23.0413 21.1985 22.5929 21.1985 22.0397C21.1985 21.4865 20.7501 21.0381 20.1969 21.0381C19.6437 21.0381 19.1953 21.4865 19.1953 22.0397C19.1953 22.5929 19.6437 23.0413 20.1969 23.0413Z" fill="#636363"/>
<path d="M3.83787 29.2176C2.33547 29.2176 1 27.5483 1 25.3781C1 23.208 2.16854 21.3717 3.83787 21.3717C5.34027 16.0298 10.1813 12.0234 15.8571 12.0234C21.5328 12.0234 26.207 15.8629 27.8763 21.3717C29.3787 21.3717 30.7142 23.0411 30.7142 25.2112C30.7142 27.3813 29.3787 29.0507 27.8763 29.0507C26.3739 34.3925 21.5328 38.3989 15.8571 38.3989C10.0144 38.3989 5.34027 34.5595 3.83787 29.2176Z" stroke="#636363" stroke-width="1.5" stroke-miterlimit="10" stroke-linecap="round" stroke-linejoin="round"/>
<path d="M12.6849 12.3577L10.8486 9.01904" stroke="#636363" stroke-width="1.5" stroke-miterlimit="10" stroke-linecap="round"/>
<path d="M15.5229 12.0237L15.6899 8.51807" stroke="#636363" stroke-width="1.5" stroke-miterlimit="10" stroke-linecap="round"/>
<path d="M18.5278 12.3577L20.0302 9.01904" stroke="#636363" stroke-width="1.5" stroke-miterlimit="10" stroke-linecap="round"/>
<g clip-path="url(#clip0_317_214)">
<path d="M49.5342 29.5386C49.5342 29.5386 53.806 33.8313 57.8837 29.5386" stroke="#636363" stroke-width="1.5" stroke-miterlimit="10" stroke-linecap="round"/>
<path d="M49.1455 19.0021C49.789 19.0021 50.3106 18.478 50.3106 17.8314C50.3106 17.1848 49.789 16.6606 49.1455 16.6606C48.5021 16.6606 47.9805 17.1848 47.9805 17.8314C47.9805 18.478 48.5021 19.0021 49.1455 19.0021Z" fill="#636363"/>
<path d="M58.8545 19.0021C59.4979 19.0021 60.0196 18.478 60.0196 17.8314C60.0196 17.1848 59.4979 16.6606 58.8545 16.6606C58.2111 16.6606 57.6895 17.1848 57.6895 17.8314C57.6895 18.478 58.2111 19.0021 58.8545 19.0021Z" fill="#636363"/>
<path d="M53.9998 39.685C61.6138 39.685 67.7862 31.7354 67.7862 21.9289C67.7862 12.1225 61.6138 4.17285 53.9998 4.17285C46.3858 4.17285 40.2134 12.1225 40.2134 21.9289C40.2134 31.7354 46.3858 39.685 53.9998 39.685Z" stroke="#636363" stroke-width="1.5" stroke-miterlimit="10" stroke-linecap="round"/>
<path d="M44.2913 34.4167H34.971C34.971 34.4167 33.6117 -9.29062 54.0001 4.17279" stroke="#636363" stroke-width="1.5" stroke-miterlimit="10" stroke-linecap="round"/>
<path d="M63.7087 34.4167H73.0291C73.0291 34.4167 74.3884 -9.29062 54 4.17279" stroke="#636363" stroke-width="1.5" stroke-miterlimit="10" stroke-linecap="round"/>
</g>
<defs>
<clipPath id="clip0_317_214">
<rect width="40" height="40" fill="white" transform="translate(34 0.660645)"/>
</clipPath>
</defs>
</svg>
