<svg width="56" height="56" viewBox="0 0 56 56" fill="none" xmlns="http://www.w3.org/2000/svg">
<path d="M34.4765 12.2348L34.4765 12.2349L34.4795 12.2393C36.1222 14.6689 37.2537 17.4126 37.3828 20.0703C37.5103 22.6933 36.6663 25.265 34.2916 27.4496C32.9018 28.6075 30.7119 29.611 28.5663 29.611C26.4206 29.611 24.2307 28.6075 22.8409 27.4496C20.4649 25.2639 19.6224 22.7111 19.7497 20.0998C19.8787 17.4522 21.01 14.7074 22.656 12.2348C24.3654 9.6671 26.0105 6.81041 27.2256 4.60168C27.7676 3.61642 28.2252 2.75791 28.5663 2.10847C28.9073 2.75791 29.3649 3.61642 29.9069 4.60168C31.122 6.81041 32.7671 9.6671 34.4765 12.2348Z" stroke="#FDB913" stroke-width="1.5"/>
<path d="M51.7353 37.7126L51.7353 37.7126L51.7383 37.7171C53.381 40.1467 54.5125 42.8904 54.6416 45.5481C54.7691 48.1711 53.9251 50.7428 51.5504 52.9274C50.1606 54.0853 47.9707 55.0888 45.825 55.0888C43.6794 55.0888 41.4895 54.0853 40.0997 52.9274C37.7237 50.7417 36.8811 48.1889 37.0084 45.5776C37.1375 42.93 38.2687 40.1851 39.9148 37.7126C41.6242 35.1449 43.2693 32.2882 44.4844 30.0795C45.0264 29.0942 45.484 28.2357 45.825 27.5863C46.166 28.2357 46.6237 29.0942 47.1657 30.0795C48.3808 32.2882 50.0259 35.1449 51.7353 37.7126Z" stroke="#FDB913" stroke-width="1.5"/>
<path d="M16.3955 37.7126L16.3955 37.7126L16.3985 37.7171C18.0412 40.1467 19.1727 42.8904 19.3018 45.5481C19.4292 48.1711 18.5852 50.7428 16.2106 52.9274C14.8207 54.0853 12.6308 55.0888 10.4852 55.0888C8.33957 55.0888 6.14965 54.0853 4.75984 52.9274C2.38389 50.7417 1.54131 48.1889 1.6686 45.5776C1.79767 42.93 2.92891 40.1851 4.57491 37.7126C6.28432 35.1449 7.92947 32.2882 9.14455 30.0795C9.68656 29.0942 10.1442 28.2357 10.4852 27.5863C10.8262 28.2357 11.2838 29.0942 11.8258 30.0795C13.0409 32.2882 14.6861 35.1449 16.3955 37.7126Z" stroke="#FDB913" stroke-width="1.5"/>
</svg>
