<svg width="42" height="42" viewBox="0 0 42 42" fill="none" xmlns="http://www.w3.org/2000/svg">
<path d="M40.3701 19.9445C40.3773 22.7309 39.7263 25.4796 38.4701 27.9667C36.9805 30.947 34.6907 33.4538 31.8569 35.2063C29.0232 36.9587 25.7575 37.8876 22.4256 37.8889C19.6393 37.8962 16.8906 37.2452 14.4034 35.9889L2.37012 40L6.38122 27.9667C5.12497 25.4796 4.47396 22.7309 4.48123 19.9445C4.48251 16.6126 5.4114 13.347 7.16385 10.5132C8.9163 7.67947 11.4231 5.38959 14.4034 3.90006C16.8906 2.6438 19.6393 1.9928 22.4256 2.00006H23.4812C27.8815 2.24282 32.0376 4.10011 35.1538 7.21631C38.27 10.3325 40.1273 14.4886 40.3701 18.8889V19.9445Z" stroke="white" stroke-width="3" stroke-linecap="round" stroke-linejoin="round"/>
</svg>
