<svg width="157" height="178" viewBox="0 0 157 178" fill="none" xmlns="http://www.w3.org/2000/svg">
<path d="M88.4801 71.9143C83.5687 64.5777 79.0001 55.548 79.0001 55.548C79.0001 55.548 74.4314 64.5777 69.5201 71.9143C64.6088 79.251 62.5529 88.5064 69.9769 95.2787C72.1471 97.0847 75.5736 98.6649 79.0001 98.6649C82.4266 98.6649 85.8531 97.0847 88.0232 95.2787C95.4473 88.5064 93.3914 79.1381 88.4801 71.9143Z" fill="#1D4691"/>
<path d="M88.4801 71.9143C83.5687 64.5777 79.0001 55.548 79.0001 55.548C79.0001 55.548 74.4314 64.5777 69.5201 71.9143C64.6088 79.251 62.5529 88.5064 69.9769 95.2787C72.1471 97.0847 75.5736 98.6649 79.0001 98.6649C82.4266 98.6649 85.8531 97.0847 88.0232 95.2787C95.4473 88.5064 93.3914 79.1381 88.4801 71.9143Z" fill="url(#paint0_radial_1230_11)"/>
<path d="M114.347 43.3436C117.363 44.7434 116.985 47.4431 116.985 50.5427V76.4391C116.985 90.9372 110.058 104.735 97.8807 114.334L80.6758 127.932C79.782 128.632 78.3297 128.632 77.3242 127.932L60.1193 114.334C47.9419 104.735 41.0152 90.9372 41.0152 76.4391V50.5427C41.0152 47.5431 40.6366 44.7435 43.6531 43.4437C64.5447 34.1449 93.4553 34.1449 114.347 43.3436Z" stroke="url(#paint1_linear_1230_11)" stroke-width="7" stroke-miterlimit="10"/>
<g filter="url(#filter0_d_1230_11)">
<path d="M125.076 30.025C129.325 31.9552 132 35.6776 132 39.9515V75.6592C132 95.6501 122.244 114.676 105.093 127.911L80.8603 146.661C79.6015 147.626 77.5559 147.626 76.1397 146.661L51.9074 127.911C34.7559 114.676 25 95.6501 25 75.6592V39.9515C25 35.8155 27.675 31.9552 31.9235 30.1629C61.3485 17.3412 95.6515 17.3412 125.076 30.025Z" stroke="url(#paint2_linear_1230_11)" stroke-width="10" stroke-miterlimit="10" shape-rendering="crispEdges"/>
</g>
<defs>
<filter id="filter0_d_1230_11" x="0" y="0.529297" width="157" height="176.856" filterUnits="userSpaceOnUse" color-interpolation-filters="sRGB">
<feFlood flood-opacity="0" result="BackgroundImageFix"/>
<feColorMatrix in="SourceAlpha" type="matrix" values="0 0 0 0 0 0 0 0 0 0 0 0 0 0 0 0 0 0 127 0" result="hardAlpha"/>
<feOffset dy="5"/>
<feGaussianBlur stdDeviation="10"/>
<feComposite in2="hardAlpha" operator="out"/>
<feColorMatrix type="matrix" values="0 0 0 0 0 0 0 0 0 0.576471 0 0 0 0 0.756863 0 0 0 0.25 0"/>
<feBlend mode="normal" in2="BackgroundImageFix" result="effect1_dropShadow_1230_11"/>
<feBlend mode="normal" in="SourceGraphic" in2="effect1_dropShadow_1230_11" result="shape"/>
</filter>
<radialGradient id="paint0_radial_1230_11" cx="0" cy="0" r="1" gradientUnits="userSpaceOnUse" gradientTransform="translate(79.0001 76.1047) rotate(90) scale(22.5602 13.8965)">
<stop stop-color="#C8EDFF"/>
<stop offset="1" stop-color="white" stop-opacity="0"/>
</radialGradient>
<linearGradient id="paint1_linear_1230_11" x1="53.1901" y1="36.457" x2="117.108" y2="36.457" gradientUnits="userSpaceOnUse">
<stop stop-color="#FDB913"/>
<stop offset="1" stop-color="#F3953B"/>
</linearGradient>
<linearGradient id="paint2_linear_1230_11" x1="78.5" y1="20.5293" x2="78.5" y2="159.363" gradientUnits="userSpaceOnUse">
<stop stop-color="#BFEAFF"/>
<stop offset="1" stop-color="#73A4F8"/>
</linearGradient>
</defs>
</svg>
