<svg width="174" height="175" viewBox="0 0 174 175" fill="none" xmlns="http://www.w3.org/2000/svg">
<path d="M53.6602 107.043V95.6572L74.1737 80.117C76.7572 78.2194 78.5657 76.4756 79.5992 75.0396C80.6843 73.5522 81.201 72.0136 81.201 70.3211C81.201 68.6286 80.6326 67.2438 79.4958 66.2694C78.3591 65.2949 76.9123 64.782 75.0521 64.782C73.2953 64.782 71.5901 65.2949 69.9366 66.3719C68.2831 67.449 66.3713 69.244 64.2011 71.7571L53.9702 63.2947C57.1221 59.2942 60.3258 56.3195 63.6844 54.4732C67.043 52.5755 71.2284 51.6523 76.2922 51.6523C82.2861 51.6523 87.1949 53.2936 90.9152 56.5247C94.6355 59.7558 96.5474 63.9614 96.5474 69.1415C96.5474 73.2445 95.5656 76.6295 93.5504 79.3477C91.5869 82.066 88.3316 84.9894 83.8362 88.1692L74.432 94.7341H97.0641V107.043H53.6602Z" fill="url(#paint0_linear_1229_10)"/>
<path d="M91.2908 100.344C89.6967 100.344 88.7433 98.57 89.6226 97.2404L98.7282 83.4717C99.171 82.8021 99.1705 81.9325 98.7269 81.2634L89.8011 67.7998C88.9198 66.4703 89.873 64.6946 91.4681 64.6946H100.001C100.706 64.6946 101.359 65.0664 101.72 65.673L104.631 70.5723C105.406 71.8767 107.295 71.8767 108.07 70.5723L110.981 65.673C111.341 65.0664 111.995 64.6946 112.7 64.6946H120.979C122.573 64.6946 123.527 66.4683 122.648 67.7979L113.798 81.1797C113.356 81.8474 113.355 82.7139 113.795 83.3825L122.918 97.2441C123.794 98.574 122.84 100.344 121.248 100.344H112.784C112.08 100.344 111.427 99.9734 111.067 99.3689L107.882 94.0353C107.109 92.7409 105.236 92.7345 104.455 94.0235L101.206 99.3808C100.843 99.9786 100.195 100.344 99.4955 100.344H91.2908Z" stroke="#4470BC" stroke-width="2"/>
<g filter="url(#filter0_d_1229_10)">
<path d="M87 144.519C121.242 144.519 149 116.76 149 82.5186C149 48.2769 121.242 20.5186 87 20.5186C52.7583 20.5186 25 48.2769 25 82.5186C25 116.76 52.7583 144.519 87 144.519Z" stroke="url(#paint1_linear_1229_10)" stroke-width="10" stroke-miterlimit="10" shape-rendering="crispEdges"/>
</g>
<defs>
<filter id="filter0_d_1229_10" x="0" y="0.518555" width="174" height="174" filterUnits="userSpaceOnUse" color-interpolation-filters="sRGB">
<feFlood flood-opacity="0" result="BackgroundImageFix"/>
<feColorMatrix in="SourceAlpha" type="matrix" values="0 0 0 0 0 0 0 0 0 0 0 0 0 0 0 0 0 0 127 0" result="hardAlpha"/>
<feOffset dy="5"/>
<feGaussianBlur stdDeviation="10"/>
<feComposite in2="hardAlpha" operator="out"/>
<feColorMatrix type="matrix" values="0 0 0 0 0 0 0 0 0 0.576471 0 0 0 0 0.756863 0 0 0 0.25 0"/>
<feBlend mode="normal" in2="BackgroundImageFix" result="effect1_dropShadow_1229_10"/>
<feBlend mode="normal" in="SourceGraphic" in2="effect1_dropShadow_1229_10" result="shape"/>
</filter>
<linearGradient id="paint0_linear_1229_10" x1="60.6161" y1="51.6523" x2="97.1345" y2="51.6523" gradientUnits="userSpaceOnUse">
<stop stop-color="#FDB913"/>
<stop offset="1" stop-color="#F3953B"/>
</linearGradient>
<linearGradient id="paint1_linear_1229_10" x1="87" y1="20.5186" x2="87" y2="156.227" gradientUnits="userSpaceOnUse">
<stop stop-color="#BFEAFF"/>
<stop offset="1" stop-color="#73A4F8"/>
</linearGradient>
</defs>
</svg>
