<svg width="283" height="58" viewBox="0 0 283 58" fill="none" xmlns="http://www.w3.org/2000/svg">
<g clip-path="url(#clip0_306_12)">
<path d="M272.096 8.10641C272.096 11.9017 268.929 15.0246 265.04 15.0246C261.152 15.0246 257.985 11.9017 257.985 8.10641C257.985 4.31117 261.152 1.18823 265.04 1.18823C268.929 1.18823 272.096 4.31117 272.096 8.10641Z" stroke="white"/>
<path d="M31.0703 29.6193C27.6703 32.9575 23.3888 34.5648 18.3517 34.5648C13.3147 34.5648 9.03323 32.9575 5.63323 29.6193C2.23323 26.2812 0.596191 22.3248 0.596191 17.503C0.596191 12.8048 2.23323 8.84843 5.63323 5.51025C9.03323 2.17207 13.3147 0.564798 18.3517 0.564798C23.3888 0.564798 27.6703 2.17207 31.0703 5.51025C34.4703 8.84843 36.1073 12.8048 36.1073 17.6266C36.2332 22.3248 34.4703 26.2812 31.0703 29.6193ZM11.174 24.9212C13.0629 26.8993 15.4555 27.8884 18.4777 27.8884C21.4999 27.8884 23.7666 26.8993 25.6554 24.9212C27.5443 22.943 28.4258 20.4703 28.4258 17.503C28.4258 14.6593 27.4184 12.1866 25.5295 10.2084C23.6406 8.23025 21.248 7.24116 18.2258 7.24116C15.2036 7.24116 13.0629 8.23025 11.174 10.2084C9.28508 12.1866 8.4036 14.6593 8.4036 17.503C8.27767 20.4703 9.28508 22.943 11.174 24.9212ZM50.9666 34.0703V7.85934H40.7666V1.18298H68.4703V7.85934H58.2703V34.0703H50.9666ZM103.604 1.18298V34.0703H96.2999V12.4339L81.6925 34.0703H74.7666V1.18298H82.0703V22.6957L96.6777 1.18298H103.604ZM112.167 34.0703V1.18298H140.122V34.0703H132.692V7.61207H119.47V33.9466H112.167V34.0703ZM145.663 34.0703L160.018 0.935708H166.818L181.174 34.0703H173.492L170.47 26.6521H156.367L153.344 34.0703H145.663ZM158.885 20.223H167.826L163.418 9.59025L158.885 20.223ZM186.841 34.0703V1.18298H194.27V15.5248L207.87 1.18298H216.811L203.211 15.1539L217.441 34.0703H208.626L198.3 20.0993L194.396 24.0557V34.0703H186.841ZM237.967 34.5648C233.055 34.5648 228.9 32.9575 225.626 29.6193C222.352 26.2812 220.715 22.3248 220.715 17.503C220.715 12.6812 222.352 8.7248 225.626 5.38662C228.9 2.04843 233.055 0.441162 238.218 0.441162C241.115 0.441162 243.507 0.935708 245.522 1.80116C247.537 2.66662 249.426 4.02662 251.189 5.75753L246.781 10.703C245.396 9.46662 244.011 8.47753 242.752 7.98298C241.492 7.3648 239.981 7.11753 238.218 7.11753C235.448 7.11753 233.055 8.10662 231.292 10.0848C229.53 12.063 228.522 14.5357 228.522 17.3793C228.522 20.223 229.404 22.6957 231.292 24.6739C233.181 26.6521 235.448 27.6412 238.218 27.6412C239.981 27.6412 241.492 27.2703 242.878 26.6521C244.137 26.0339 245.522 25.0448 247.033 23.6848L251.692 28.6303C249.93 30.4848 247.915 31.9684 245.774 32.8339C243.633 34.0703 241.115 34.5648 237.967 34.5648Z" fill="white"/>
<path d="M261.767 12.3102V3.7793H265.796C266.804 3.7793 267.685 4.02657 268.189 4.52112C268.818 5.01566 269.07 5.63384 269.07 6.4993C269.07 7.11748 268.818 7.73566 268.441 8.10657C268.063 8.47748 267.559 8.84839 266.93 8.97202L269.322 12.1866H267.559L265.293 9.2193H263.404V12.1866H261.767V12.3102ZM263.404 7.98293H265.67C266.174 7.98293 266.678 7.8593 267.056 7.61202C267.433 7.36475 267.559 6.99384 267.559 6.4993C267.559 6.00475 267.433 5.75748 267.056 5.51021C266.678 5.26293 266.3 5.1393 265.67 5.1393H263.404V7.98293Z" fill="white"/>
</g>
<path d="M2.87329 53.5647H14.5478V44.5347H13.5287V52.6359H9.22009V44.5347H8.20099V52.6359H3.89239V44.5347H2.87329V53.5647ZM16.9283 53.5647H20.2694C21.74 53.5647 22.6946 52.8681 22.6946 51.7458C22.6946 50.8041 22.0238 50.3139 21.224 50.0946C21.7787 49.8624 22.3334 49.4367 22.3334 48.5595C22.3334 47.5533 21.482 46.8954 20.1533 46.8954H16.9283V53.5647ZM17.9216 52.7133V50.559H20.0114C21.095 50.559 21.6755 50.946 21.6755 51.591C21.6755 52.2876 21.095 52.7133 20.1404 52.7133H17.9216ZM17.9216 49.7592V47.7468H19.9985C20.8628 47.7468 21.3272 48.1338 21.3272 48.6885C21.3272 49.3851 20.7725 49.7592 19.9727 49.7592H17.9216ZM24.4869 53.5647H25.4415L29.4147 48.2886V53.5647H30.408V46.8954H29.4405L25.4802 52.1715V46.8954H24.4869V53.5647ZM31.6446 55.2288H32.4573L32.6379 53.5647H38.0301V55.2288H38.8557L39.0105 52.6875H38.0043V46.8954H33.2571V48.0564C33.2571 50.301 32.9088 51.6942 32.367 52.6875H31.6446V55.2288ZM33.4248 52.6875C33.8892 51.8232 34.2117 50.3526 34.2117 48.7014V47.7726H37.011V52.6875H33.4248ZM40.3726 53.5647H41.3659V51.9522L42.772 50.5074L45.1456 53.5647H46.3195L43.4557 49.785L46.2421 46.8954H45.0166L41.3659 50.7396V46.8954H40.3726V53.5647ZM49.6784 53.7066C50.8523 53.7066 51.6134 53.1648 52.0778 52.5714V53.5647H53.0582V49.4883C53.0582 48.6369 52.826 47.9919 52.3616 47.5275C51.8843 47.0502 51.149 46.7922 50.2073 46.7922C49.2269 46.7922 48.5174 47.0244 47.7821 47.3598L48.0788 48.1725C48.698 47.8887 49.3172 47.6952 50.1041 47.6952C51.3554 47.6952 52.0778 48.3144 52.0778 49.5012V49.7076C51.4844 49.5399 50.891 49.4238 50.0396 49.4238C48.3497 49.4238 47.1887 50.172 47.1887 51.6039C47.1887 52.9971 48.4271 53.7066 49.6784 53.7066ZM49.8719 52.9068C48.9689 52.9068 48.1949 52.4166 48.1949 51.5781C48.1949 50.7525 48.9044 50.2107 50.1428 50.2107C50.9555 50.2107 51.6005 50.3526 52.0907 50.4945V51.1137C52.0907 52.1715 51.0974 52.9068 49.8719 52.9068ZM58.0493 55.2288H58.862L59.0426 53.5647H64.4348V55.2288H65.2604L65.4152 52.6875H64.409V46.8954H59.6618V48.0564C59.6618 50.301 59.3135 51.6942 58.7717 52.6875H58.0493V55.2288ZM59.8295 52.6875C60.2939 51.8232 60.6164 50.3526 60.6164 48.7014V47.7726H63.4157V52.6875H59.8295ZM69.8217 53.7195C71.8341 53.7195 73.3176 52.1199 73.3176 50.2365C73.3176 48.3273 71.847 46.7535 69.8475 46.7535C67.8351 46.7535 66.3645 48.3531 66.3645 50.2365C66.3645 52.1457 67.8222 53.7195 69.8217 53.7195ZM69.8475 52.8294C68.4414 52.8294 67.3836 51.6684 67.3836 50.2365C67.3836 48.8046 68.3769 47.6307 69.8217 47.6307C71.2278 47.6307 72.2985 48.8046 72.2985 50.2365C72.2985 51.6684 71.2923 52.8294 69.8475 52.8294ZM75.1169 53.5647H76.1102V47.7726H79.9028V53.5647H80.8961V46.8954H75.1169V53.5647ZM86.1608 53.7195C88.1732 53.7195 89.6567 52.1199 89.6567 50.2365C89.6567 48.3273 88.1861 46.7535 86.1866 46.7535C84.1742 46.7535 82.7036 48.3531 82.7036 50.2365C82.7036 52.1457 84.1613 53.7195 86.1608 53.7195ZM86.1866 52.8294C84.7805 52.8294 83.7227 51.6684 83.7227 50.2365C83.7227 48.8046 84.716 47.6307 86.1608 47.6307C87.5669 47.6307 88.6376 48.8046 88.6376 50.2365C88.6376 51.6684 87.6314 52.8294 86.1866 52.8294ZM91.4561 53.5647H92.4236V48.4821L94.8617 51.8619L97.3256 48.4821V53.5647H98.3318V46.8954H97.3772L94.8875 50.4042L92.3978 46.8954H91.4561V53.5647ZM103.596 53.7195C105.608 53.7195 107.092 52.1199 107.092 50.2365C107.092 48.3273 105.621 46.7535 103.622 46.7535C101.609 46.7535 100.139 48.3531 100.139 50.2365C100.139 52.1457 101.596 53.7195 103.596 53.7195ZM103.622 52.8294C102.216 52.8294 101.158 51.6684 101.158 50.2365C101.158 48.8046 102.151 47.6307 103.596 47.6307C105.002 47.6307 106.073 48.8046 106.073 50.2365C106.073 51.6684 105.067 52.8294 103.622 52.8294ZM108.891 53.5647H109.885V47.7726H113.419V46.8954H108.891V53.5647ZM116.849 53.7066C118.023 53.7066 118.784 53.1648 119.249 52.5714V53.5647H120.229V49.4883C120.229 48.6369 119.997 47.9919 119.532 47.5275C119.055 47.0502 118.32 46.7922 117.378 46.7922C116.398 46.7922 115.688 47.0244 114.953 47.3598L115.25 48.1725C115.869 47.8887 116.488 47.6952 117.275 47.6952C118.526 47.6952 119.249 48.3144 119.249 49.5012V49.7076C118.655 49.5399 118.062 49.4238 117.21 49.4238C115.52 49.4238 114.359 50.172 114.359 51.6039C114.359 52.9971 115.598 53.7066 116.849 53.7066ZM117.043 52.9068C116.14 52.9068 115.366 52.4166 115.366 51.5781C115.366 50.7525 116.075 50.2107 117.314 50.2107C118.126 50.2107 118.771 50.3526 119.261 50.4945V51.1137C119.261 52.1715 118.268 52.9068 117.043 52.9068ZM126.2 53.5647H127.194V47.7726H130.986V53.5647H131.98V46.8954H126.2V53.5647ZM134.2 55.6287H135.193V52.2876C135.709 53.0358 136.509 53.7066 137.747 53.7066C139.36 53.7066 140.934 52.4166 140.934 50.2365C140.934 48.0177 139.347 46.7535 137.747 46.7535C136.522 46.7535 135.735 47.4372 135.193 48.237V46.8954H134.2V55.6287ZM137.567 52.8165C136.328 52.8165 135.155 51.7845 135.155 50.2365C135.155 48.6885 136.328 47.6436 137.567 47.6436C138.831 47.6436 139.915 48.6498 139.915 50.2236C139.915 51.8619 138.857 52.8165 137.567 52.8165ZM142.766 53.5647H143.721L147.694 48.2886V53.5647H148.687V46.8954H147.72L143.76 52.1715V46.8954H142.766V53.5647ZM154.772 53.5647H158.113C159.584 53.5647 160.538 52.8681 160.538 51.7458C160.538 50.8041 159.867 50.3139 159.068 50.0946C159.622 49.8624 160.177 49.4367 160.177 48.5595C160.177 47.5533 159.326 46.8954 157.997 46.8954H154.772V53.5647ZM155.765 52.7133V50.559H157.855C158.939 50.559 159.519 50.946 159.519 51.591C159.519 52.2876 158.939 52.7133 157.984 52.7133H155.765ZM155.765 49.7592V47.7468H157.842C158.706 47.7468 159.171 48.1338 159.171 48.6885C159.171 49.3851 158.616 49.7592 157.816 49.7592H155.765ZM163.362 55.6674C164.369 55.6674 165.014 55.1643 165.581 53.784L168.381 46.8954H167.323L165.181 52.4553L162.756 46.8954H161.66L164.691 53.5389C164.291 54.4806 163.917 54.7902 163.324 54.7902C162.898 54.7902 162.601 54.7128 162.279 54.5451L161.943 55.332C162.395 55.5513 162.808 55.6674 163.362 55.6674ZM169.952 53.5647H179.446V46.8954H178.44V52.6875H175.189V46.8954H174.196V52.6875H170.945V46.8954H169.952V53.5647ZM181.668 53.5647H182.661V50.6493H186.505V53.5647H187.499V46.8954H186.505V49.7721H182.661V46.8954H181.668V53.5647ZM192.762 53.7195C194.775 53.7195 196.258 52.1199 196.258 50.2365C196.258 48.3273 194.787 46.7535 192.788 46.7535C190.776 46.7535 189.305 48.3531 189.305 50.2365C189.305 52.1457 190.763 53.7195 192.762 53.7195ZM192.788 52.8294C191.382 52.8294 190.324 51.6684 190.324 50.2365C190.324 48.8046 191.317 47.6307 192.762 47.6307C194.168 47.6307 195.239 48.8046 195.239 50.2365C195.239 51.6684 194.233 52.8294 192.788 52.8294ZM198.057 53.5647H199.025V48.4821L201.463 51.8619L203.927 48.4821V53.5647H204.933V46.8954H203.979L201.489 50.4042L198.999 46.8954H198.057V53.5647ZM208.185 55.6674C209.191 55.6674 209.836 55.1643 210.404 53.784L213.203 46.8954H212.145L210.004 52.4553L207.579 46.8954H206.482L209.514 53.5389C209.114 54.4806 208.74 54.7902 208.146 54.7902C207.721 54.7902 207.424 54.7128 207.101 54.5451L206.766 55.332C207.217 55.5513 207.63 55.6674 208.185 55.6674ZM221.777 53.7195C223.75 53.7195 225.195 52.1457 225.195 50.2881C225.195 48.4563 223.738 46.9728 221.996 46.9728C220.577 46.9728 219.7 47.6307 219.235 48.4176C219.339 47.1405 219.803 46.3923 221.183 46.044L224.795 45.1539L224.602 44.3154L220.887 45.1926C218.565 45.7473 218.397 47.8113 218.397 49.9656C218.397 52.2876 219.751 53.7195 221.777 53.7195ZM221.803 52.8294C220.461 52.8294 219.416 51.7071 219.416 50.3139C219.416 48.9207 220.396 47.7984 221.777 47.7984C223.118 47.7984 224.163 48.9207 224.163 50.3139C224.163 51.7071 223.183 52.8294 221.803 52.8294ZM230.039 53.7195C232.051 53.7195 233.535 52.1199 233.535 50.2365C233.535 48.3273 232.064 46.7535 230.064 46.7535C228.052 46.7535 226.581 48.3531 226.581 50.2365C226.581 52.1457 228.039 53.7195 230.039 53.7195ZM230.064 52.8294C228.658 52.8294 227.601 51.6684 227.601 50.2365C227.601 48.8046 228.594 47.6307 230.039 47.6307C231.445 47.6307 232.515 48.8046 232.515 50.2365C232.515 51.6684 231.509 52.8294 230.064 52.8294ZM235.011 53.6679C236.276 53.6679 237.217 53.1261 237.217 47.9274V47.7726H240.004V53.5647H240.997V46.8954H236.276V47.4501C236.276 52.4553 235.605 52.8036 234.805 52.8036C234.689 52.8036 234.457 52.752 234.328 52.7133L234.212 53.5647C234.418 53.6163 234.792 53.6679 235.011 53.6679ZM248.948 53.7195C250.973 53.7195 252.263 52.107 252.263 50.2365C252.263 48.3402 250.986 46.7535 248.973 46.7535C247.116 46.7535 245.89 48.1338 245.697 49.7979H244.213V46.8954H243.22V53.5647H244.213V50.6364H245.697C245.865 52.3521 247.077 53.7195 248.948 53.7195ZM248.973 52.8294C247.593 52.8294 246.703 51.6813 246.703 50.2365C246.703 48.8046 247.529 47.6436 248.948 47.6436C250.341 47.6436 251.231 48.7917 251.231 50.2365C251.231 51.6684 250.405 52.8294 248.973 52.8294Z" fill="white"/>
<defs>
<clipPath id="clip0_306_12">
<rect width="272" height="34" fill="white" transform="translate(0.596191 0.564697)"/>
</clipPath>
</defs>
</svg>
