<svg width="286" height="53" viewBox="0 0 286 53" fill="none" xmlns="http://www.w3.org/2000/svg">
<g clip-path="url(#clip0_1248_15)">
<path d="M225.575 12.8264C229.104 12.8264 231.992 9.97915 231.992 6.49915C231.992 3.01915 229.104 0.171875 225.575 0.171875C222.046 0.171875 219.158 3.01915 219.158 6.49915C219.158 9.97915 222.046 12.8264 225.575 12.8264ZM225.575 11.0337C228.142 11.0337 230.173 9.03006 230.173 6.49915C230.173 3.96824 228.142 1.9646 225.575 1.9646C223.008 1.9646 220.976 3.96824 220.976 6.49915C220.976 8.9246 223.008 11.0337 225.575 11.0337Z" fill="#3592BE"/>
<path d="M225.575 11.8775C228.588 11.8775 231.029 9.46956 231.029 6.49928C231.029 3.52899 228.588 1.12109 225.575 1.12109C222.563 1.12109 220.121 3.52899 220.121 6.49928C220.121 9.46956 222.563 11.8775 225.575 11.8775Z" fill="white"/>
<path d="M26.8723 24.8482C23.9848 27.6955 20.3486 29.0664 16.0709 29.0664C11.7931 29.0664 8.15698 27.6955 5.26948 24.8482C2.38198 22.0009 0.991699 18.6264 0.991699 14.5137C0.991699 10.5064 2.38198 7.13185 5.26948 4.28457C8.15698 1.4373 11.7931 0.0663921 16.0709 0.0663921C20.3486 0.0663921 23.9848 1.4373 26.8723 4.28457C29.7598 7.13185 31.15 10.5064 31.15 14.6191C31.257 18.6264 29.7598 22.0009 26.8723 24.8482ZM9.97503 20.8409C11.5792 22.5282 13.6111 23.3718 16.1778 23.3718C18.7445 23.3718 20.6695 22.5282 22.2736 20.8409C23.8778 19.1537 24.6264 17.0446 24.6264 14.5137C24.6264 12.0882 23.7709 9.97912 22.1667 8.29185C20.5625 6.60457 18.5306 5.76094 15.9639 5.76094C13.3973 5.76094 11.5792 6.60457 9.97503 8.29185C8.37087 9.97912 7.62225 12.0882 7.62225 14.5137C7.51531 17.0446 8.37087 19.1537 9.97503 20.8409ZM43.7695 28.6446V6.28821H35.107V0.593665H58.6348V6.28821H49.9723V28.6446H43.7695ZM88.4723 0.593665V28.6446H82.2695V10.19L69.8639 28.6446H63.982V0.593665H70.1848V18.9428L82.5903 0.593665H88.4723ZM95.7445 28.6446V0.593665H119.486V28.6446H113.176V6.0773H101.947V28.5391H95.7445V28.6446ZM124.192 28.6446L136.383 0.382756H142.158L154.35 28.6446H147.826L145.26 22.3173H133.282L130.715 28.6446H124.192ZM135.421 16.8337H143.014L139.271 7.76457L135.421 16.8337ZM159.163 28.6446V0.593665H165.472V12.8264L177.022 0.593665H184.615L173.065 12.51L185.15 28.6446H177.664L168.894 16.7282L165.579 20.1028V28.6446H159.163ZM202.582 29.0664C198.411 29.0664 194.882 27.6955 192.101 24.8482C189.321 22.0009 187.931 18.6264 187.931 14.5137C187.931 10.4009 189.321 7.02639 192.101 4.17912C194.882 1.33185 198.411 -0.0390625 202.796 -0.0390625C205.256 -0.0390625 207.288 0.382756 208.999 1.12094C210.71 1.85912 212.314 3.01912 213.811 4.49548L210.068 8.71367C208.892 7.65912 207.715 6.81548 206.646 6.39367C205.576 5.86639 204.293 5.65548 202.796 5.65548C200.443 5.65548 198.411 6.49912 196.914 8.18639C195.417 9.87366 194.561 11.9828 194.561 14.4082C194.561 16.8337 195.31 18.9428 196.914 20.63C198.518 22.3173 200.443 23.1609 202.796 23.1609C204.293 23.1609 205.576 22.8446 206.753 22.3173C207.822 21.79 208.999 20.9464 210.282 19.7864L214.239 24.0046C212.742 25.5864 211.031 26.8518 209.213 27.59C207.394 28.6446 205.256 29.0664 202.582 29.0664Z" fill="#3592BE"/>
<path d="M222.794 10.0845V2.80811H226.217C227.072 2.80811 227.821 3.01901 228.249 3.44083C228.783 3.86265 228.997 4.38992 228.997 5.12811C228.997 5.65538 228.783 6.18265 228.462 6.49901C228.142 6.81538 227.714 7.13174 227.179 7.2372L229.211 9.97901H227.714L225.789 7.44811H224.185V9.97901H222.794V10.0845ZM224.185 6.39356H226.11C226.537 6.39356 226.965 6.28811 227.286 6.0772C227.607 5.86629 227.714 5.54992 227.714 5.12811C227.714 4.70629 227.607 4.49538 227.286 4.28447C226.965 4.07356 226.644 3.96811 226.11 3.96811H224.185V6.39356Z" fill="#3592BE"/>
</g>
<path d="M10.3737 48.2224C13.0127 48.2224 15.0927 46.0774 15.0927 43.5164C15.0927 40.9294 13.0387 38.8104 10.3997 38.8104C7.7607 38.8104 5.6807 40.9554 5.6807 43.5164C5.6807 46.1034 7.7347 48.2224 10.3737 48.2224ZM10.3737 47.8194C7.9427 47.8194 6.1097 45.8954 6.1097 43.5424C6.1097 41.1634 7.9557 39.2134 10.3997 39.2134C12.8307 39.2134 14.6637 41.1374 14.6637 43.4904C14.6637 45.8694 12.8177 47.8194 10.3737 47.8194ZM10.4387 45.9474C11.3097 45.9474 11.8557 45.6094 12.3627 45.0894L11.8947 44.6344C11.4657 45.0374 11.0757 45.2844 10.4647 45.2844C9.5027 45.2844 8.7487 44.4524 8.7487 43.4514C8.7487 42.4374 9.4767 41.6054 10.4517 41.6054C11.0237 41.6054 11.4787 41.8914 11.8557 42.2554L12.3367 41.7354C11.8557 41.2804 11.3357 40.9554 10.4647 40.9554C9.0607 40.9554 8.0207 42.0864 8.0207 43.4384C8.0207 44.8294 9.0607 45.9474 10.4387 45.9474ZM25.1922 48.2224C27.9612 48.2224 29.8462 46.0254 29.8462 43.5164C29.8462 40.9814 27.9872 38.8104 25.2182 38.8104C22.4492 38.8104 20.5642 41.0074 20.5642 43.5164C20.5642 46.0514 22.4232 48.2224 25.1922 48.2224ZM25.2182 47.2734C23.1382 47.2734 21.6302 45.5834 21.6302 43.5164C21.6302 41.4234 23.1122 39.7594 25.1922 39.7594C27.2722 39.7594 28.7802 41.4494 28.7802 43.5164C28.7802 45.6094 27.2982 47.2734 25.2182 47.2734ZM34.0921 48.1834C34.5731 48.1834 34.9501 48.0794 35.3011 47.8974V47.0394C34.9501 47.2084 34.6641 47.2734 34.3261 47.2734C33.6501 47.2734 33.1951 46.9744 33.1951 46.1554V42.2294H35.3271V41.3454H33.1951V39.3174H32.1941V41.3454H31.2581V42.2294H32.1941V46.2854C32.1941 47.6504 33.0131 48.1834 34.0921 48.1834ZM37.125 39.8764H38.269V38.7714H37.125V39.8764ZM37.19 48.0664H38.191V41.3454H37.19V48.0664ZM40.514 50.1464H41.515V46.7794C42.035 47.5334 42.841 48.2094 44.089 48.2094C45.714 48.2094 47.3 46.9094 47.3 44.7124C47.3 42.4764 45.701 41.2024 44.089 41.2024C42.854 41.2024 42.061 41.8914 41.515 42.6974V41.3454H40.514V50.1464ZM43.907 47.3124C42.659 47.3124 41.476 46.2724 41.476 44.7124C41.476 43.1524 42.659 42.0994 43.907 42.0994C45.181 42.0994 46.273 43.1134 46.273 44.6994C46.273 46.3504 45.207 47.3124 43.907 47.3124ZM51.1488 48.2094C52.3318 48.2094 53.0988 47.6634 53.5668 47.0654V48.0664H54.5548V43.9584C54.5548 43.1004 54.3208 42.4504 53.8528 41.9824C53.3718 41.5014 52.6308 41.2414 51.6818 41.2414C50.6938 41.2414 49.9788 41.4754 49.2378 41.8134L49.5368 42.6324C50.1608 42.3464 50.7848 42.1514 51.5778 42.1514C52.8388 42.1514 53.5668 42.7754 53.5668 43.9714V44.1794C52.9688 44.0104 52.3708 43.8934 51.5128 43.8934C49.8098 43.8934 48.6398 44.6474 48.6398 46.0904C48.6398 47.4944 49.8878 48.2094 51.1488 48.2094ZM51.3438 47.4034C50.4338 47.4034 49.6538 46.9094 49.6538 46.0644C49.6538 45.2324 50.3688 44.6864 51.6168 44.6864C52.4358 44.6864 53.0858 44.8294 53.5798 44.9724V45.5964C53.5798 46.6624 52.5788 47.4034 51.3438 47.4034ZM56.0641 48.0664H57.1821L59.2751 45.3234L61.3551 48.0664H62.5121L59.8601 44.6214L62.4081 41.3454H61.2901L59.3011 43.9454L57.3121 41.3454H56.1681L58.7031 44.6474L56.0641 48.0664ZM68.2974 48.0664H69.3244V38.9664H68.2974V48.0664ZM71.8206 48.0664H72.8216V44.2184C72.8216 42.9574 73.6796 42.1124 74.8366 42.1124C76.0196 42.1124 76.6956 42.8924 76.6956 44.1404V48.0664H77.6966V43.8934C77.6966 42.2944 76.7476 41.2024 75.1226 41.2024C73.9656 41.2024 73.2636 41.7874 72.8216 42.5154V41.3454H71.8206V48.0664ZM82.8604 48.2224C84.1214 48.2224 84.9274 47.6764 85.6034 46.9224L84.9404 46.3114C84.4074 46.8834 83.7704 47.3254 82.9124 47.3254C81.5084 47.3254 80.4424 46.1684 80.4424 44.7124C80.4424 43.2434 81.4824 42.0864 82.8474 42.0864C83.7574 42.0864 84.3814 42.5154 84.9144 43.0744L85.5514 42.3984C84.9274 41.7354 84.1344 41.2024 82.8604 41.2024C80.8974 41.2024 79.4154 42.8144 79.4154 44.7124C79.4154 46.6234 80.8974 48.2224 82.8604 48.2224ZM87.1411 48.0664H88.3371V46.7014H87.1411V48.0664ZM93.7311 48.0664H94.7841L95.8631 45.6614H100.816L101.882 48.0664H102.987L98.8401 38.9014H97.8781L93.7311 48.0664ZM96.2661 44.7384L98.3461 40.0974L100.413 44.7384H96.2661ZM104.704 48.0664H105.705V38.5764H104.704V48.0664ZM108.119 48.0664H109.12V38.5764H108.119V48.0664ZM115.34 48.0664H116.341V45.3884C116.341 43.3604 117.537 42.3074 119.006 42.3074H119.084V41.2284C117.81 41.1764 116.835 41.9824 116.341 43.1004V41.3454H115.34V48.0664ZM120.635 39.8764H121.779V38.7714H120.635V39.8764ZM120.7 48.0664H121.701V41.3454H120.7V48.0664ZM127.001 50.1724C128.067 50.1724 128.964 49.8734 129.562 49.2754C130.108 48.7294 130.42 47.9364 130.42 46.8964V41.3454H129.419V42.5544C128.873 41.8264 128.054 41.2024 126.793 41.2024C125.194 41.2024 123.634 42.4114 123.634 44.3744C123.634 46.3374 125.181 47.5464 126.793 47.5464C128.028 47.5464 128.847 46.9094 129.432 46.1294V46.9224C129.432 48.4954 128.47 49.3144 126.988 49.3144C126.026 49.3144 125.168 49.0154 124.401 48.4564L123.946 49.2364C124.843 49.8604 125.883 50.1724 127.001 50.1724ZM126.988 46.6624C125.74 46.6624 124.661 45.7264 124.661 44.3744C124.661 42.9704 125.714 42.0864 126.988 42.0864C128.262 42.0864 129.458 42.9834 129.458 44.3614C129.458 45.7394 128.262 46.6624 126.988 46.6624ZM132.657 48.0664H133.658V44.2184C133.658 42.9574 134.516 42.1124 135.673 42.1124C136.856 42.1124 137.532 42.8924 137.532 44.1404V48.0664H138.533V43.8934C138.533 42.2944 137.584 41.2024 135.959 41.2024C134.802 41.2024 134.1 41.7874 133.658 42.5154V38.5764H132.657V48.0664ZM142.916 48.1834C143.397 48.1834 143.774 48.0794 144.125 47.8974V47.0394C143.774 47.2084 143.488 47.2734 143.15 47.2734C142.474 47.2734 142.019 46.9744 142.019 46.1554V42.2294H144.151V41.3454H142.019V39.3174H141.018V41.3454H140.082V42.2294H141.018V46.2854C141.018 47.6504 141.837 48.1834 142.916 48.1834ZM148.146 48.1964C149.485 48.1964 150.538 47.4554 150.538 46.1814C150.538 44.9464 149.42 44.5434 148.38 44.2314C147.483 43.9584 146.651 43.7114 146.651 43.0744C146.651 42.4894 147.158 42.0734 147.951 42.0734C148.601 42.0734 149.316 42.3204 149.94 42.7234L150.395 41.9694C149.706 41.5144 148.796 41.2284 147.977 41.2284C146.651 41.2284 145.689 41.9954 145.689 43.1524C145.689 44.4134 146.859 44.7774 147.912 45.0764C148.796 45.3234 149.589 45.5834 149.589 46.2594C149.589 46.9354 149.004 47.3514 148.198 47.3514C147.405 47.3514 146.599 47.0394 145.871 46.4934L145.364 47.2084C146.118 47.8194 147.184 48.1964 148.146 48.1964ZM156.295 48.0664H157.296V45.3884C157.296 43.3604 158.492 42.3074 159.961 42.3074H160.039V41.2284C158.765 41.1764 157.79 41.9824 157.296 43.1004V41.3454H156.295V48.0664ZM161.87 45.1154H167.2C167.213 44.9594 167.213 44.8554 167.213 44.7644C167.213 42.7884 166.069 41.2024 164.08 41.2024C162.221 41.2024 160.856 42.7624 160.856 44.7124C160.856 46.8054 162.364 48.2224 164.21 48.2224C165.484 48.2224 166.303 47.7154 166.979 46.9614L166.355 46.4024C165.809 46.9744 165.159 47.3514 164.236 47.3514C163.053 47.3514 162.013 46.5324 161.87 45.1154ZM161.87 44.3094C162.013 43.0094 162.897 42.0474 164.054 42.0474C165.38 42.0474 166.082 43.0874 166.199 44.3094H161.87ZM171.188 48.1964C172.527 48.1964 173.58 47.4554 173.58 46.1814C173.58 44.9464 172.462 44.5434 171.422 44.2314C170.525 43.9584 169.693 43.7114 169.693 43.0744C169.693 42.4894 170.2 42.0734 170.993 42.0734C171.643 42.0734 172.358 42.3204 172.982 42.7234L173.437 41.9694C172.748 41.5144 171.838 41.2284 171.019 41.2284C169.693 41.2284 168.731 41.9954 168.731 43.1524C168.731 44.4134 169.901 44.7774 170.954 45.0764C171.838 45.3234 172.631 45.5834 172.631 46.2594C172.631 46.9354 172.046 47.3514 171.24 47.3514C170.447 47.3514 169.641 47.0394 168.913 46.4934L168.406 47.2084C169.16 47.8194 170.226 48.1964 171.188 48.1964ZM176.038 45.1154H181.368C181.381 44.9594 181.381 44.8554 181.381 44.7644C181.381 42.7884 180.237 41.2024 178.248 41.2024C176.389 41.2024 175.024 42.7624 175.024 44.7124C175.024 46.8054 176.532 48.2224 178.378 48.2224C179.652 48.2224 180.471 47.7154 181.147 46.9614L180.523 46.4024C179.977 46.9744 179.327 47.3514 178.404 47.3514C177.221 47.3514 176.181 46.5324 176.038 45.1154ZM176.038 44.3094C176.181 43.0094 177.065 42.0474 178.222 42.0474C179.548 42.0474 180.25 43.0874 180.367 44.3094H176.038ZM183.133 48.0664H184.134V45.3884C184.134 43.3604 185.33 42.3074 186.799 42.3074H186.877V41.2284C185.603 41.1764 184.628 41.9824 184.134 43.1004V41.3454H183.133V48.0664ZM190.651 48.1184H191.535L194.46 41.3454H193.381L191.106 46.9224L188.844 41.3454H187.739L190.651 48.1184ZM196.236 45.1154H201.566C201.579 44.9594 201.579 44.8554 201.579 44.7644C201.579 42.7884 200.435 41.2024 198.446 41.2024C196.587 41.2024 195.222 42.7624 195.222 44.7124C195.222 46.8054 196.73 48.2224 198.576 48.2224C199.85 48.2224 200.669 47.7154 201.345 46.9614L200.721 46.4024C200.175 46.9744 199.525 47.3514 198.602 47.3514C197.419 47.3514 196.379 46.5324 196.236 45.1154ZM196.236 44.3094C196.379 43.0094 197.263 42.0474 198.42 42.0474C199.746 42.0474 200.448 43.0874 200.565 44.3094H196.236ZM206.152 48.2094C207.387 48.2094 208.18 47.5204 208.726 46.7144V48.0664H209.727V38.5764H208.726V42.6324C208.206 41.8784 207.4 41.2024 206.152 41.2024C204.54 41.2024 202.941 42.5024 202.941 44.6994C202.941 46.9354 204.54 48.2094 206.152 48.2094ZM206.334 47.3124C205.06 47.3124 203.968 46.2984 203.968 44.7124C203.968 43.0614 205.034 42.0994 206.334 42.0994C207.582 42.0994 208.765 43.1394 208.765 44.6864C208.765 46.2594 207.582 47.3124 206.334 47.3124ZM211.847 48.0664H213.043V46.7014H211.847V48.0664Z" fill="#3592BE"/>
<defs>
<clipPath id="clip0_1248_15">
<rect width="231" height="29" fill="white" transform="translate(0.991699 0.0664062)"/>
</clipPath>
</defs>
</svg>
