<svg width="134" height="134" viewBox="0 0 134 134" fill="none" xmlns="http://www.w3.org/2000/svg">
<path d="M131.875 88.9131C131.875 92.7366 130.356 96.4036 127.652 99.1072C124.949 101.811 121.282 103.33 117.458 103.33H30.9583L2.125 132.163V16.8298C2.125 13.0062 3.64389 9.33928 6.34754 6.63563C9.05119 3.93198 12.7181 2.41309 16.5417 2.41309H117.458C121.282 2.41309 124.949 3.93198 127.652 6.63563C130.356 9.33928 131.875 13.0062 131.875 16.8298V88.9131Z" stroke="#7CD5FF" stroke-width="3" stroke-linecap="round" stroke-linejoin="round"/>
<g clip-path="url(#clip0_1247_14)">
<path d="M112.389 52.2183C113.825 52.2183 115 51.0401 115 49.6001C115 48.1601 113.825 46.9819 112.389 46.9819C110.953 46.9819 109.778 48.1601 109.778 49.6001C109.778 51.0401 110.953 52.2183 112.389 52.2183ZM112.389 51.4765C113.433 51.4765 114.26 50.6474 114.26 49.6001C114.26 48.5528 113.433 47.7238 112.389 47.7238C111.344 47.7238 110.518 48.5528 110.518 49.6001C110.518 50.6038 111.344 51.4765 112.389 51.4765Z" fill="#3592BE"/>
<path d="M112.389 51.8259C113.615 51.8259 114.608 50.8295 114.608 49.6005C114.608 48.3714 113.615 47.375 112.389 47.375C111.163 47.375 110.169 48.3714 110.169 49.6005C110.169 50.8295 111.163 51.8259 112.389 51.8259Z" fill="white"/>
<path d="M31.5315 57.1932C30.3565 58.3714 28.8769 58.9387 27.1361 58.9387C25.3954 58.9387 23.9157 58.3714 22.7407 57.1932C21.5657 56.015 21 54.6187 21 52.9168C21 51.2587 21.5657 49.8623 22.7407 48.6841C23.9157 47.5059 25.3954 46.9387 27.1361 46.9387C28.8769 46.9387 30.3565 47.5059 31.5315 48.6841C32.7065 49.8623 33.2722 51.2587 33.2722 52.9605C33.3157 54.6187 32.7065 56.015 31.5315 57.1932ZM24.6556 55.535C25.3083 56.2332 26.1352 56.5823 27.1796 56.5823C28.2241 56.5823 29.0074 56.2332 29.6602 55.535C30.313 54.8368 30.6176 53.9641 30.6176 52.9168C30.6176 51.9132 30.2694 51.0405 29.6167 50.3423C28.9639 49.6441 28.137 49.295 27.0926 49.295C26.0481 49.295 25.3083 49.6441 24.6556 50.3423C24.0028 51.0405 23.6981 51.9132 23.6981 52.9168C23.6546 53.9641 24.0028 54.8368 24.6556 55.535ZM38.4074 58.7641V49.5132H34.8824V47.1568H44.4565V49.5132H40.9315V58.7641H38.4074ZM56.5981 47.1568V58.7641H54.0741V51.1277L49.0259 58.7641H46.6324V47.1568H49.1565V54.7496L54.2046 47.1568H56.5981ZM59.5574 58.7641V47.1568H69.2185V58.7641H66.6509V49.4259H62.0815V58.7205H59.5574V58.7641ZM71.1333 58.7641L76.0944 47.0696H78.4444L83.4055 58.7641H80.7509L79.7065 56.1459H74.8324L73.788 58.7641H71.1333ZM75.7028 53.8768H78.7926L77.2694 50.1241L75.7028 53.8768ZM85.3639 58.7641V47.1568H87.9315V52.2187L92.6315 47.1568H95.7213L91.0213 52.0877L95.9389 58.7641H92.8926L89.3241 53.8332L87.975 55.2296V58.7641H85.3639ZM103.032 58.9387C101.335 58.9387 99.8991 58.3714 98.7676 57.1932C97.6361 56.015 97.0704 54.6187 97.0704 52.9168C97.0704 51.215 97.6361 49.8187 98.7676 48.6405C99.8991 47.4623 101.335 46.895 103.119 46.895C104.12 46.895 104.947 47.0696 105.644 47.375C106.34 47.6805 106.993 48.1605 107.602 48.7714L106.079 50.5168C105.6 50.0805 105.121 49.7314 104.686 49.5568C104.251 49.3387 103.729 49.2514 103.119 49.2514C102.162 49.2514 101.335 49.6005 100.726 50.2987C100.117 50.9968 99.7685 51.8696 99.7685 52.8732C99.7685 53.8768 100.073 54.7496 100.726 55.4477C101.379 56.1459 102.162 56.495 103.119 56.495C103.729 56.495 104.251 56.3641 104.73 56.1459C105.165 55.9277 105.644 55.5787 106.166 55.0987L107.776 56.8441C107.167 57.4987 106.47 58.0223 105.731 58.3277C104.991 58.7641 104.12 58.9387 103.032 58.9387Z" fill="#3592BE"/>
<path d="M111.257 51.0842V48.0732H112.65C112.998 48.0732 113.303 48.1605 113.477 48.3351C113.694 48.5096 113.781 48.7278 113.781 49.0332C113.781 49.2514 113.694 49.4696 113.564 49.6005C113.433 49.7314 113.259 49.8623 113.042 49.906L113.868 51.0405H113.259L112.476 49.9932H111.823V51.0405H111.257V51.0842ZM111.823 49.5569H112.606C112.78 49.5569 112.955 49.5132 113.085 49.426C113.216 49.3387 113.259 49.2078 113.259 49.0332C113.259 48.8587 113.216 48.7714 113.085 48.6842C112.955 48.5969 112.824 48.5532 112.606 48.5532H111.823V49.5569Z" fill="#3592BE"/>
</g>
<defs>
<clipPath id="clip0_1247_14">
<rect width="94" height="12" fill="white" transform="translate(21 46.9385)"/>
</clipPath>
</defs>
</svg>
