<svg width="114" height="152" viewBox="0 0 114 152" fill="none" xmlns="http://www.w3.org/2000/svg">
<path d="M56.9165 2.04785L95.8637 55.9822C101.531 63.982 108.813 73.4883 110.94 84.1677C113.067 94.8472 111.978 105.918 107.813 115.979C103.648 126.04 96.5918 134.639 87.5383 140.69C78.4847 146.74 67.8401 149.97 56.9509 149.97C46.0617 149.97 35.4171 146.74 26.3636 140.69C17.31 134.639 10.2543 126.04 6.08879 115.979C1.92332 105.918 0.83527 94.8472 2.96227 84.1677C5.08928 73.4883 11.4531 63.0831 17.5089 55.458L56.9165 2.04785Z" stroke="#7CD5FF" stroke-width="3" stroke-linecap="round" stroke-linejoin="round"/>
<path d="M26.5645 98.3787L57.3049 67.6382L88.0454 98.3787" stroke="#FDB913" stroke-width="3" stroke-linecap="round" stroke-linejoin="round"/>
</svg>
