<svg width="44" height="44" viewBox="0 0 44 44" fill="none" xmlns="http://www.w3.org/2000/svg">
<path d="M17.0586 30.9336C17.0586 30.9336 22.2001 36.3089 27.108 30.9336" stroke="#636363" stroke-width="1.5" stroke-miterlimit="10" stroke-linecap="round"/>
<path d="M16.5912 21.1182C17.3656 21.1182 17.9934 20.4904 17.9934 19.716C17.9934 18.9415 17.3656 18.3137 16.5912 18.3137C15.8168 18.3137 15.189 18.9415 15.189 19.716C15.189 20.4904 15.8168 21.1182 16.5912 21.1182Z" fill="#636363"/>
<path d="M28.2763 21.1182C29.0507 21.1182 29.6785 20.4904 29.6785 19.716C29.6785 18.9415 29.0507 18.3137 28.2763 18.3137C27.5018 18.3137 26.874 18.9415 26.874 19.716C26.874 20.4904 27.5018 21.1182 28.2763 21.1182Z" fill="#636363"/>
<path d="M5.37341 29.7649C3.27005 29.7649 1.40039 27.4279 1.40039 24.3897C1.40039 21.3515 3.03634 18.7807 5.37341 18.7807C7.47677 11.3021 14.2543 5.69312 22.2003 5.69312C30.1464 5.69312 36.6902 11.0684 39.0272 18.7807C41.1306 18.7807 43.0002 21.1178 43.0002 24.156C43.0002 27.1942 41.1306 29.5312 39.0272 29.5312C36.9239 37.0099 30.1464 42.6188 22.2003 42.6188C14.0206 42.6188 7.47677 37.2436 5.37341 29.7649Z" stroke="#636363" stroke-width="1.5" stroke-miterlimit="10" stroke-linecap="round" stroke-linejoin="round"/>
<path d="M17.7597 6.16096L15.189 1.48682" stroke="#636363" stroke-width="1.5" stroke-miterlimit="10" stroke-linecap="round"/>
<path d="M21.7329 5.69349L21.9666 0.785645" stroke="#636363" stroke-width="1.5" stroke-miterlimit="10" stroke-linecap="round"/>
<path d="M25.9395 6.16096L28.0428 1.48682" stroke="#636363" stroke-width="1.5" stroke-miterlimit="10" stroke-linecap="round"/>
</svg>
