<svg width="174" height="175" viewBox="0 0 174 175" fill="none" xmlns="http://www.w3.org/2000/svg">
<path d="M146.25 83.988H86.561C86.561 56.5367 86.561 35.7289 86.561 34.1534V24.2991C119.503 24.2991 146.25 51.0465 146.25 83.988Z" fill="url(#paint0_linear_1229_9)"/>
<path d="M86.561 24.2991V38.4945" stroke="#B6BCD3" stroke-width="2" stroke-miterlimit="10"/>
<g clip-path="url(#clip0_1229_9)">
<path d="M87 126.506V132.972" stroke="#B6BCD3" stroke-width="2" stroke-miterlimit="10"/>
<path d="M38 83.9719H44.4663" stroke="#B6BCD3" stroke-width="2" stroke-miterlimit="10"/>
<path d="M129.534 83.9719H136" stroke="#B6BCD3" stroke-width="2" stroke-miterlimit="10"/>
<path d="M52.3696 49.3414L56.896 53.8678" stroke="#B6BCD3" stroke-width="2" stroke-miterlimit="10"/>
<path d="M117.104 114.076L121.63 118.602" stroke="#B6BCD3" stroke-width="2" stroke-miterlimit="10"/>
<path d="M52.3696 118.602L56.896 114.076" stroke="#B6BCD3" stroke-width="2" stroke-miterlimit="10"/>
<path d="M117.104 53.8678L121.63 49.3414" stroke="#B6BCD3" stroke-width="2" stroke-miterlimit="10"/>
<path d="M66.0612 105.701V73.3521L58.7955 75.0387L56.5034 65.7837L69.1318 62.1941H77.8246V105.658H66.0612V105.701Z" fill="#4470BC"/>
<path d="M100.702 106.566C93.9125 106.566 88.074 104.274 83.187 99.7332L90.0202 91.7323C93.7395 94.8462 97.1993 96.4031 100.486 96.4031C102.476 96.4031 104.032 95.9274 105.157 95.0192C106.281 94.111 106.844 92.8135 106.844 91.2134C106.844 89.6997 106.238 88.4888 105.07 87.5806C103.903 86.6724 102.346 86.2399 100.486 86.2399C98.2805 86.2399 95.9451 86.9751 93.5665 88.4023L86.4738 84.4667L87.7713 62.4969H116.618V72.3573H97.1993L96.8533 78.931C99.0157 77.8931 101.351 77.3741 103.773 77.3741C107.968 77.3741 111.471 78.5418 114.325 80.9204C117.18 83.299 118.564 86.7156 118.564 91.1701C118.564 95.8841 116.92 99.6467 113.677 102.415C110.39 105.182 106.065 106.566 100.702 106.566Z" fill="#4470BC"/>
</g>
<g filter="url(#filter0_d_1229_9)">
<path d="M87 144.034C121.242 144.034 149 116.276 149 82.0339C149 47.7923 121.242 20.0339 87 20.0339C52.7583 20.0339 25 47.7923 25 82.0339C25 116.276 52.7583 144.034 87 144.034Z" stroke="url(#paint1_linear_1229_9)" stroke-width="10" stroke-miterlimit="10" shape-rendering="crispEdges"/>
</g>
<defs>
<filter id="filter0_d_1229_9" x="0" y="0.0339355" width="174" height="174" filterUnits="userSpaceOnUse" color-interpolation-filters="sRGB">
<feFlood flood-opacity="0" result="BackgroundImageFix"/>
<feColorMatrix in="SourceAlpha" type="matrix" values="0 0 0 0 0 0 0 0 0 0 0 0 0 0 0 0 0 0 127 0" result="hardAlpha"/>
<feOffset dy="5"/>
<feGaussianBlur stdDeviation="10"/>
<feComposite in2="hardAlpha" operator="out"/>
<feColorMatrix type="matrix" values="0 0 0 0 0 0 0 0 0 0.576471 0 0 0 0 0.756863 0 0 0 0.25 0"/>
<feBlend mode="normal" in2="BackgroundImageFix" result="effect1_dropShadow_1229_9"/>
<feBlend mode="normal" in="SourceGraphic" in2="effect1_dropShadow_1229_9" result="shape"/>
</filter>
<linearGradient id="paint0_linear_1229_9" x1="96.1268" y1="24.2991" x2="146.347" y2="24.2991" gradientUnits="userSpaceOnUse">
<stop stop-color="#FDB913"/>
<stop offset="1" stop-color="#F3953B"/>
</linearGradient>
<linearGradient id="paint1_linear_1229_9" x1="87" y1="20.0339" x2="87" y2="155.742" gradientUnits="userSpaceOnUse">
<stop stop-color="#BFEAFF"/>
<stop offset="1" stop-color="#73A4F8"/>
</linearGradient>
<clipPath id="clip0_1229_9">
<rect width="98" height="98" fill="white" transform="translate(38 34.9719)"/>
</clipPath>
</defs>
</svg>
