<svg width="114" height="152" viewBox="0 0 114 152" fill="none" xmlns="http://www.w3.org/2000/svg">
<path d="M56.9165 2.04736L95.8637 55.9817C101.531 63.9815 108.813 73.4878 110.94 84.1672C113.067 94.8467 111.978 105.917 107.813 115.978C103.648 126.039 96.5918 134.639 87.5383 140.689C78.4847 146.74 67.8401 149.969 56.9509 149.969C46.0617 149.969 35.4171 146.74 26.3636 140.689C17.31 134.639 10.2543 126.039 6.08879 115.978C1.92332 105.917 0.83527 94.8467 2.96227 84.1672C5.08928 73.4878 11.4531 63.0826 17.5089 55.4575L56.9165 2.04736Z" stroke="#7CD5FF" stroke-width="3" stroke-linecap="round" stroke-linejoin="round"/>
<path d="M25.3047 76.0083L57.3047 108.008L89.3047 76.0083" stroke="#FDB913" stroke-width="3" stroke-linecap="round" stroke-linejoin="round"/>
</svg>
