<svg width="185" height="295" viewBox="0 0 185 295" fill="none" xmlns="http://www.w3.org/2000/svg">
<path d="M1.98877 92.3092C1.98877 42.3145 42.5674 1.95996 92.338 1.95996C142.109 1.95996 182.687 42.5386 182.687 92.3092C182.687 117.194 172.599 139.838 156.233 156.204" stroke="#F39837" stroke-width="3" stroke-miterlimit="10"/>
<path d="M114.755 250.364C114.755 273.904 95.699 292.96 72.1589 292.96C48.6188 292.96 29.5625 273.904 29.5625 250.364" stroke="#F39837" stroke-width="3" stroke-miterlimit="10"/>
<path d="M156.234 156.426C156.234 156.426 119.018 192.297 114.758 250.587" stroke="#F39837" stroke-width="3" stroke-miterlimit="10"/>
<path d="M128.434 146.34C139.195 135.579 145.472 120.334 144.127 103.743C142.109 77.2888 120.363 55.9906 93.908 54.1971C70.3679 52.852 50.1907 66.0793 41.223 85.5839C38.9811 90.292 44.8101 94.3274 48.6213 90.9645C55.1229 84.9114 64.0905 79.5308 76.1969 79.3066" stroke="#F39837" stroke-width="3" stroke-miterlimit="10"/>
<path d="M128.433 146.563C128.433 146.563 108.617 167.654 100.885 199.805" stroke="#F39837" stroke-width="3" stroke-miterlimit="10"/>
</svg>
