<svg width="1432" height="699" viewBox="0 0 1432 699" fill="none" xmlns="http://www.w3.org/2000/svg">
<g opacity="0.5">
<path d="M39.4523 181.492C53.6094 181.492 62.5273 170.235 70.6648 151.723L64.8682 137.964C57.3995 153.974 50.3767 163.23 39.6753 163.23C22.5084 163.23 9.46601 131.46 9.46601 90.9335C9.46601 50.1572 22.3969 18.6368 39.6753 18.6368C50.2652 18.6368 57.6225 28.6433 64.1994 42.6523L69.996 28.6433C62.1929 12.1326 53.9438 0.375 39.7867 0.375C16.8232 0.375 0.325195 41.4015 0.325195 90.9335C0.325195 141.716 16.9347 181.492 39.4523 181.492Z" fill="#BEDDEB"/>
<path d="M77.1616 178.49H86.191L95.4433 132.21H137.915L147.055 178.49H156.531L120.971 2.12612H112.722L77.1616 178.49ZM98.8989 114.449L116.735 25.141L134.459 114.449H98.8989Z" fill="#BEDDEB"/>
<path d="M169.689 178.49H178.272V36.8986L206.698 130.459H207.144L235.57 36.6484V178.49H244.376V3.37693H235.458L207.032 98.9387L178.607 3.37693H169.689V178.49Z" fill="#BEDDEB"/>
<path d="M300.465 181.492C324.209 181.492 340.373 139.215 340.373 90.9335C340.373 42.152 324.432 0.375 300.688 0.375C276.944 0.375 260.781 42.6523 260.781 90.9335C260.781 139.715 276.721 181.492 300.465 181.492ZM300.688 163.23C282.853 163.23 269.922 130.709 269.922 90.9335C269.922 50.6575 282.63 18.6368 300.465 18.6368C318.301 18.6368 331.232 51.1578 331.232 90.9335C331.232 131.21 318.524 163.23 300.688 163.23Z" fill="#BEDDEB"/>
<path d="M355.267 180.491C367.306 180.491 378.453 163.23 378.453 40.4009V21.3886H411.672V178.49H420.478V3.37693H369.981V35.1475C369.981 154.475 359.837 162.73 353.817 162.73C351.365 162.73 348.132 161.479 346.906 160.228L345.123 176.239C347.129 177.99 351.811 180.491 355.267 180.491Z" fill="#BEDDEB"/>
<path d="M441.049 178.49H449.855V3.37693H441.049V178.49Z" fill="#BEDDEB"/>
<path d="M470.479 178.49H479.286V131.46L495.895 93.6853L525.882 178.49H536.918L502.026 79.9264L535.468 3.37693H524.098L479.286 107.945V3.37693H470.479V178.49Z" fill="#BEDDEB"/>
<path d="M559.853 181.492C569.105 181.492 577.354 170.485 583.708 141.716L614.587 3.37693H605L580.141 117.701L551.381 3.37693H541.349L575.682 137.464C571.112 156.976 565.427 163.731 560.076 163.731C555.952 163.731 553.276 162.23 550.155 158.477L546.699 174.237C550.824 178.99 554.725 181.492 559.853 181.492Z" fill="#BEDDEB"/>
<path d="M627.352 178.49H662.02C679.076 178.49 690.334 160.729 690.334 130.709C690.334 106.193 682.866 94.1857 673.613 87.9316C679.744 81.9277 685.987 70.1701 685.987 47.4054C685.987 35.6478 684.203 26.3918 680.971 18.887C676.623 8.8805 669.489 3.37693 660.571 3.37693H627.352V178.49ZM636.047 160.729V98.9387H660.682C674.282 98.9387 681.417 109.946 681.417 128.958C681.417 148.971 674.059 160.729 662.243 160.729H636.047ZM636.047 81.4274V21.1384H659.791C670.938 21.1384 677.069 32.3957 677.069 49.6569C677.069 70.6704 669.712 81.4274 659.122 81.4274H636.047Z" fill="#BEDDEB"/>
<path d="M698.882 178.49H707.911L717.164 132.21H759.635L768.776 178.49H778.251L742.691 2.12612H734.442L698.882 178.49ZM720.619 114.449L738.455 25.141L756.179 114.449H720.619Z" fill="#BEDDEB"/>
<path d="M791.409 178.49H800.216V99.6892H845.251V178.49H854.057V3.37693H845.251V81.1772H800.216V3.37693H791.409V178.49Z" fill="#BEDDEB"/>
<path d="M873.873 178.49H882.68V99.6892H927.715V178.49H936.521V3.37693H927.715V81.1772H882.68V3.37693H873.873V178.49Z" fill="#BEDDEB"/>
<path d="M949.984 178.49H960.685L983.871 111.447H1006.28V178.49H1015.08V3.37693H981.753C971.721 3.37693 963.806 10.3815 959.013 21.1384C955.111 29.6439 953.105 42.6523 953.105 56.1611C953.105 85.43 961.911 103.191 974.396 108.195L949.984 178.49ZM982.311 94.686C970.383 94.686 961.911 80.4268 961.911 57.662C961.911 35.3976 969.491 21.1384 982.311 21.1384H1006.28V94.686H982.311Z" fill="#BEDDEB"/>
<path d="M1066.07 178.49H1074.66V36.8986L1103.08 130.459H1103.53L1131.95 36.6484V178.49H1140.76V3.37693H1131.84L1103.42 98.9387L1074.99 3.37693H1066.07V178.49Z" fill="#BEDDEB"/>
<path d="M1196.85 181.492C1220.59 181.492 1236.76 139.215 1236.76 90.9335C1236.76 42.152 1220.82 0.375 1197.07 0.375C1173.33 0.375 1157.17 42.6523 1157.17 90.9335C1157.17 139.715 1173.11 181.492 1196.85 181.492ZM1197.07 163.23C1179.24 163.23 1166.31 130.709 1166.31 90.9335C1166.31 50.6575 1179.01 18.6368 1196.85 18.6368C1214.69 18.6368 1227.62 51.1578 1227.62 90.9335C1227.62 131.21 1214.91 163.23 1197.07 163.23Z" fill="#BEDDEB"/>
<path d="M1244.74 178.49H1255.66L1282.86 93.185L1298.36 131.46V178.49H1307.16V131.46L1322.55 93.185L1349.86 178.49H1360.78L1328.68 78.4255L1358.78 3.37693H1347.85L1307.16 106.694V3.37693H1298.36V106.694L1257.67 3.37693H1246.75L1276.84 78.4255L1244.74 178.49Z" fill="#BEDDEB"/>
<path d="M1372.25 178.49H1429.21V160.479H1381.06V99.1889H1423.64V81.1772H1381.06V21.3886H1428.66V3.37693H1372.25V178.49Z" fill="#BEDDEB"/>
<path d="M3.78087 418.803H36.554C53.9438 418.803 65.3141 400.791 65.3141 366.519C65.3141 331.246 52.2718 315.486 35.6622 315.486H12.5873V261.701H59.7405V243.69H3.78087V418.803ZM12.5873 400.791V332.998H35.4393C48.3702 332.998 56.5077 343.504 56.5077 365.519C56.5077 390.785 48.4817 400.791 35.8852 400.791H12.5873Z" fill="#BEDDEB"/>
<path d="M97.5308 421.805C106.783 421.805 115.032 410.798 121.386 382.029L152.264 243.69H142.677L117.819 358.014L89.0588 243.69H79.0262L113.36 377.776C108.79 397.289 103.104 404.043 97.7537 404.043C93.6292 404.043 90.9538 402.542 87.8326 398.79L84.3769 414.55C88.5014 419.303 92.403 421.805 97.5308 421.805Z" fill="#BEDDEB"/>
<path d="M191.226 418.803H200.144V261.701H226.34V243.69H165.03V261.701H191.226V418.803Z" fill="#BEDDEB"/>
<path d="M246.231 418.803H254.814L301.299 273.459V418.803H309.994V243.69H301.633L255.037 389.034V243.69H246.231V418.803Z" fill="#BEDDEB"/>
<path d="M372.122 418.803H473.005V243.69H464.199V400.791H426.967V243.69H418.16V400.791H380.928V243.69H372.122V418.803Z" fill="#BEDDEB"/>
<path d="M498.37 418.803H507.176V371.773L523.785 333.998L553.772 418.803H564.808L529.916 320.239L563.358 243.69H551.988L507.176 348.257V243.69H498.37V418.803Z" fill="#BEDDEB"/>
<path d="M582.615 418.803H591.422V243.69H582.615V418.803Z" fill="#BEDDEB"/>
<path d="M607.699 457.828H615.167L616.728 418.803H680.045V457.828H687.402L688.74 400.791H678.596V243.69H627.541V274.21C627.541 330.996 623.193 374.024 615.725 400.791H607.699V457.828ZM625.646 400.791C632.111 376.776 636.013 329.745 636.013 284.466V261.701H669.789V400.791H625.646Z" fill="#BEDDEB"/>
<path d="M703.555 420.804C715.594 420.804 726.742 403.543 726.742 280.714V261.701H759.961V418.803H768.767V243.69H718.27V275.46C718.27 394.787 708.126 403.043 702.106 403.043C699.654 403.043 696.421 401.792 695.195 400.541L693.411 416.552C695.418 418.303 700.1 420.804 703.555 420.804Z" fill="#BEDDEB"/>
<path d="M794.131 418.803H802.714L849.199 273.459V418.803H857.893V243.69H849.533L802.937 389.034V243.69H794.131V418.803Z" fill="#BEDDEB"/>
<path d="M883.257 418.803H917.925C934.981 418.803 946.24 401.042 946.24 371.022C946.24 346.506 938.771 334.499 929.519 328.244C935.65 322.241 941.892 310.483 941.892 287.718C941.892 275.961 940.109 266.705 936.876 259.2C932.528 249.193 925.394 243.69 916.476 243.69H883.257V418.803ZM891.952 401.042V339.252H916.588C930.187 339.252 937.322 350.259 937.322 369.271C937.322 389.284 929.965 401.042 918.148 401.042H891.952ZM891.952 321.74V261.451H915.696C926.843 261.451 932.974 272.709 932.974 289.97C932.974 310.983 925.617 321.74 915.027 321.74H891.952Z" fill="#BEDDEB"/>
<path d="M967.049 418.803H975.633L1022.12 273.459V418.803H1030.81V243.69H1022.45L975.856 389.034V243.69H967.049V418.803Z" fill="#BEDDEB"/>
<path d="M1056.18 418.803H1064.76V277.211L1093.19 370.772H1093.63L1122.06 276.961V418.803H1130.86V243.69H1121.95L1093.52 339.252L1065.09 243.69H1056.18V418.803Z" fill="#BEDDEB"/>
<path d="M1183.14 457.828H1190.61L1192.17 418.803H1255.49V457.828H1262.84L1264.18 400.791H1254.04V243.69H1202.98V274.21C1202.98 330.996 1198.64 374.024 1191.17 400.791H1183.14V457.828ZM1201.09 400.791C1207.55 376.776 1211.45 329.745 1211.45 284.466V261.701H1245.23V400.791H1201.09Z" fill="#BEDDEB"/>
<path d="M1279 420.804C1291.04 420.804 1302.18 403.543 1302.18 280.714V261.701H1335.4V418.803H1344.21V243.69H1293.71V275.46C1293.71 394.787 1283.57 403.043 1277.55 403.043C1275.1 403.043 1271.86 401.792 1270.64 400.541L1268.85 416.552C1270.86 418.303 1275.54 420.804 1279 420.804Z" fill="#BEDDEB"/>
<path d="M1363.22 418.803H1373.92L1397.11 351.76H1419.51V418.803H1428.32V243.69H1394.99C1384.96 243.69 1377.04 250.694 1372.25 261.451C1368.35 269.957 1366.34 282.965 1366.34 296.474C1366.34 325.743 1375.15 343.504 1387.63 348.508L1363.22 418.803ZM1395.55 334.999C1383.62 334.999 1375.15 320.74 1375.15 297.975C1375.15 275.71 1382.73 261.451 1395.55 261.451H1419.51V334.999H1395.55Z" fill="#BEDDEB"/>
<path d="M3.78087 659.116H38.4491C55.5045 659.116 66.7633 641.354 66.7633 611.335C66.7633 586.819 59.2946 574.811 50.0423 568.557C56.1733 562.553 62.4158 550.796 62.4158 528.031C62.4158 516.273 60.6322 507.017 57.3995 499.513C53.0521 489.506 45.9178 484.003 36.9999 484.003H3.78087V659.116ZM12.4758 641.354V579.564H37.1114C50.7111 579.564 57.8454 590.572 57.8454 609.584C57.8454 629.597 50.4882 641.354 38.672 641.354H12.4758ZM12.4758 562.053V501.764H36.2196C47.3669 501.764 53.498 513.021 53.498 530.283C53.498 551.296 46.1407 562.053 35.5508 562.053H12.4758Z" fill="#BEDDEB"/>
<path d="M96.268 659.116H105.297L114.55 612.836H157.021L166.162 659.116H175.637L140.077 482.752H131.828L96.268 659.116ZM118.005 595.075L135.841 505.767L153.565 595.075H118.005Z" fill="#BEDDEB"/>
<path d="M209.752 659.116H310.635V484.003H301.829V641.104H264.597V484.003H255.791V641.104H218.559V484.003H209.752V659.116Z" fill="#BEDDEB"/>
<path d="M387.612 662.118C411.356 662.118 427.52 619.84 427.52 571.559C427.52 522.778 411.579 481.001 387.835 481.001C364.091 481.001 347.928 523.278 347.928 571.559C347.928 620.341 363.868 662.118 387.612 662.118ZM387.835 643.856C369.999 643.856 357.068 611.335 357.068 571.559C357.068 531.283 369.776 499.262 387.612 499.262C405.448 499.262 418.379 531.784 418.379 571.559C418.379 611.835 405.671 643.856 387.835 643.856Z" fill="#BEDDEB"/>
<path d="M464.82 659.116H473.626V502.014H514.648V484.003H464.82V659.116Z" fill="#BEDDEB"/>
<path d="M585.419 662.118C609.163 662.118 625.326 619.84 625.326 571.559C625.326 522.778 609.386 481.001 585.642 481.001C561.898 481.001 545.734 523.278 545.734 571.559C545.734 620.341 561.675 662.118 585.419 662.118ZM585.642 643.856C567.806 643.856 554.875 611.335 554.875 571.559C554.875 531.283 567.583 499.262 585.419 499.262C603.255 499.262 616.186 531.784 616.186 571.559C616.186 611.835 603.478 643.856 585.642 643.856Z" fill="#BEDDEB"/>
<path d="M740.636 662.118C756.911 662.118 767.947 640.104 767.947 612.336C767.947 589.071 760.813 575.562 751.56 569.308C758.695 563.554 765.829 551.546 765.829 528.031C765.829 501.014 755.016 481.251 739.521 481.251C727.148 481.251 719.01 489.506 711.207 504.516L716.335 518.275C723.135 504.516 730.492 498.512 739.298 498.512C749.554 498.512 756.911 511.771 756.911 529.782C756.911 550.546 748.996 562.804 737.849 562.804H729.266V579.064H737.849C749.777 579.064 758.917 588.57 758.917 611.335C758.917 632.098 750.334 645.107 740.747 645.107C729.489 645.107 721.24 636.851 713.325 620.091L708.086 633.85C717.226 652.612 727.148 662.118 740.636 662.118Z" fill="#BEDDEB"/>
<path d="M794.449 698.141H801.917L803.478 659.116H866.795V698.141H874.152L875.49 641.104H865.346V484.003H814.291V514.522C814.291 571.309 809.943 614.337 802.475 641.104H794.449V698.141ZM812.396 641.104C818.861 617.089 822.763 570.058 822.763 524.779V502.014H856.539V641.104H812.396Z" fill="#BEDDEB"/>
<path d="M943.367 662.118C967.11 662.118 983.274 619.84 983.274 571.559C983.274 522.778 967.333 481.001 943.589 481.001C919.846 481.001 903.682 523.278 903.682 571.559C903.682 620.341 919.623 662.118 943.367 662.118ZM943.589 643.856C925.754 643.856 912.823 611.335 912.823 571.559C912.823 531.283 925.531 499.262 943.367 499.262C961.202 499.262 974.133 531.784 974.133 571.559C974.133 611.835 961.425 643.856 943.589 643.856Z" fill="#BEDDEB"/>
<path d="M1020.57 659.116H1029.38V597.326H1048.33C1064.94 597.326 1078.99 577.813 1078.99 540.039C1078.99 505.016 1067.39 484.003 1049.78 484.003H1020.57V659.116ZM1029.38 579.314V502.264H1049.11C1061.71 502.264 1070.07 515.273 1070.07 540.289C1070.07 563.804 1061.6 579.314 1048.67 579.314H1029.38Z" fill="#BEDDEB"/>
<path d="M1149.99 662.118C1173.73 662.118 1189.9 619.84 1189.9 571.559C1189.9 522.778 1173.96 481.001 1150.21 481.001C1126.47 481.001 1110.31 523.278 1110.31 571.559C1110.31 620.341 1126.25 662.118 1149.99 662.118ZM1150.21 643.856C1132.38 643.856 1119.45 611.335 1119.45 571.559C1119.45 531.283 1132.16 499.262 1149.99 499.262C1167.83 499.262 1180.76 531.784 1180.76 571.559C1180.76 611.835 1168.05 643.856 1150.21 643.856Z" fill="#BEDDEB"/>
<path d="M1227.2 659.116H1261.87C1278.92 659.116 1290.18 641.354 1290.18 611.335C1290.18 586.819 1282.71 574.811 1273.46 568.557C1279.59 562.553 1285.83 550.796 1285.83 528.031C1285.83 516.273 1284.05 507.017 1280.82 499.513C1276.47 489.506 1269.34 484.003 1260.42 484.003H1227.2V659.116ZM1235.89 641.354V579.564H1260.53C1274.13 579.564 1281.26 590.572 1281.26 609.584C1281.26 629.597 1273.91 641.354 1262.09 641.354H1235.89ZM1235.89 562.053V501.764H1259.64C1270.78 501.764 1276.92 513.021 1276.92 530.283C1276.92 551.296 1269.56 562.053 1258.97 562.053H1235.89Z" fill="#BEDDEB"/>
<path d="M1322.36 540.789C1330.83 536.537 1334.73 526.78 1334.73 506.517V484.003H1324.48V510.27H1328.49V512.771C1328.49 522.027 1326.15 527.781 1321.02 532.034L1322.36 540.789Z" fill="#BEDDEB"/>
<path d="M1366.07 659.116H1376.77L1399.96 592.073H1422.37V659.116H1431.17V484.003H1397.84C1387.81 484.003 1379.89 491.007 1375.1 501.764C1371.2 510.27 1369.19 523.278 1369.19 536.787C1369.19 566.056 1378 583.817 1390.48 588.82L1366.07 659.116ZM1398.4 575.312C1386.47 575.312 1378 561.052 1378 538.288C1378 516.023 1385.58 501.764 1398.4 501.764H1422.37V575.312H1398.4Z" fill="#BEDDEB"/>
</g>
</svg>
